<?xml version="1.0" encoding="UTF-8" standalone="no"?>
<!-- Created with Inkscape (http://www.inkscape.org/) -->

<svg
   xmlns:dc="http://purl.org/dc/elements/1.1/"
   xmlns:cc="http://creativecommons.org/ns#"
   xmlns:rdf="http://www.w3.org/1999/02/22-rdf-syntax-ns#"
   xmlns:svg="http://www.w3.org/2000/svg"
   xmlns="http://www.w3.org/2000/svg"
   xmlns:sodipodi="http://sodipodi.sourceforge.net/DTD/sodipodi-0.dtd"
   xmlns:inkscape="http://www.inkscape.org/namespaces/inkscape"
   version="1.1"
   width="440.42969"
   height="500"
   id="svg3015"
   inkscape:version="0.48.4 r9939"
   sodipodi:docname="html5.svg">
  <sodipodi:namedview
     pagecolor="#ffffff"
     bordercolor="#666666"
     borderopacity="1"
     objecttolerance="10"
     gridtolerance="10"
     guidetolerance="10"
     inkscape:pageopacity="0"
     inkscape:pageshadow="2"
     inkscape:window-width="1920"
     inkscape:window-height="1058"
     id="namedview12"
     showgrid="false"
     inkscape:zoom="1"
     inkscape:cx="182.39705"
     inkscape:cy="250"
     inkscape:window-x="-8"
     inkscape:window-y="-8"
     inkscape:window-maximized="1"
     inkscape:current-layer="svg3015"
     fit-margin-top="0"
     fit-margin-left="0"
     fit-margin-right="0"
     fit-margin-bottom="0" />
  <defs
     id="defs3017" />
  <metadata
     id="metadata3020">
    <rdf:RDF>
      <cc:Work
         rdf:about="">
        <dc:format>image/svg+xml</dc:format>
        <dc:type
           rdf:resource="http://purl.org/dc/dcmitype/StillImage" />
        <dc:title></dc:title>
      </cc:Work>
    </rdf:RDF>
  </metadata>
  <g
     transform="matrix(0.97656249,0,0,0.97656249,-496.86104,-261.51441)"
     id="layer1">
    <g
       transform="translate(508.78571,267.79081)"
       id="g2992">
      <path
         d="M 41,459.99995 0,-5.4087979e-5 l 451,0 L 410,459.99995 l -185,52"
         id="path6"
         style="fill:#b4311c;fill-opacity:1"
         inkscape:connector-curvature="0" />
      <path
         d="m 226,471.99995 149,-41 35,-394.000004 -184,0"
         id="path8"
         style="fill:#dc3f26;fill-opacity:1"
         inkscape:connector-curvature="0" />
      <g
         transform="translate(-30,-5.4087979e-5)"
         id="g3038"
         style="fill:#ffffff;fill-opacity:1">
        <path
           d="m 256,208 -75,0 -5,-58 80,0 0,-56 -1,0 -141,0 1,15 14,156 127,0 z m 0,147 -1,0 -63,-17 -4,-45 -30,0 -26,0 7,89 116,32 1,0 z"
           id="path10"
           style="fill:#ffffff;fill-opacity:1"
           inkscape:connector-curvature="0" />
        <path
           d="m 255,208 0,57 70,0 -7,73 -63,17 0,59 116,-32 1,-10 13,-149 2,-15 -16,0 z m 0,-114 0,35 0,21 0,0 137,0 0,0 0,0 1,-12 3,-29 1,-15 z"
           id="path12"
           style="fill:#ffffff;fill-opacity:1"
           inkscape:connector-curvature="0" />
      </g>
    </g>
  </g>
</svg>
