<?xml version="1.0" encoding="UTF-8" standalone="no"?>
<!DOCTYPE svg  PUBLIC '-//W3C//DTD SVG 1.1//EN'  'http://www.w3.org/Graphics/SVG/1.1/DTD/svg11.dtd'>
<svg xmlns="http://www.w3.org/2000/svg">
<defs>
<font id="FuturaLT-BookOblique" horiz-adv-x="616">
<font-face slope="-9" underline-position="-75" font-weight="400" descent="-200" panose-1="2 0 5 4 3 0 0 9 0 3" units-per-em="1000" unicode-range="U+0020-2122" bbox="-69 -293 1242 1006" x-height="470" underline-thickness="50" font-family="FuturaLT" ascent="800" font-style="oblique" cap-height="754"/>
<missing-glyph horiz-adv-x="1000"/>
<glyph glyph-name=".notdef" horiz-adv-x="1000"/>
<glyph glyph-name=".null" horiz-adv-x="0"/>
<glyph glyph-name="nonmarkingreturn" horiz-adv-x="1000"/>
<glyph glyph-name="space" horiz-adv-x="308" unicode=" "/>
<glyph glyph-name="exclam" horiz-adv-x="338" unicode="!" d="M185 99q23 0 35.5 -14t12.5 -31q0 -5 -2.5 -19t-21.5 -31t-42 -17t-35.5 15t-12.5 32q0 5 2.5 19t21.5 30t42 16zM247 754h82l-95 -601h-82z"/>
<glyph glyph-name="quotedbl" horiz-adv-x="457" unicode='&quot;' d="M315 754l-70 -328h-58l34 328h94zM474 754l-70 -328h-58l34 328h94z"/>
<glyph glyph-name="numbersign" d="M432 754l-68 -204h124l67 204h79l-67 -204h92l-12 -78h-105l-56 -171h101l-13 -78h-115l-75 -223h-76l74 223h-123l-77 -223h-75l74 223h-102l13 78h115l56 171h-107l12 78h119l68 204h77zM285 301h123l56 171h-123z" unicode="#"/>
<glyph glyph-name="dollar" d="M368 76q50 16 83.5 54.5t41.5 88.5q2 10 2 19q0 13 -4.5 28t-16.5 30t-29 27t-35 21zM398 682q-42 -8 -73 -39.5t-38 -73.5q-1 -7 -1 -14q0 -12 4.5 -25.5t15.5 -26.5t26.5 -23t30.5 -17zM349 374q-32 14 -61 31t-50 40.5t-29 47.5t-8 46q0 15 3 33q6 39 24.5 71.5 t46.5 57t63 40t73 20.5l16 103h66l-16 -103q50 -7 87 -38t52 -76l-72 -43q-11 26 -30 48.5t-50 28.5l-39 -247q34 -16 65 -34.5t52.5 -43t29.5 -50.5t8 -50q0 -16 -3 -35q-7 -42 -26.5 -79t-49 -67t-67 -51t-79.5 -29l-17 -110h-66l16 104q-40 2 -73.5 17.5t-58 42t-38.5 61 t-15 73.5l85 23v-6q0 -23 7.5 -45.5t22 -41t36 -30.5t47.5 -14z" unicode="$"/>
<glyph glyph-name="percent" horiz-adv-x="797" unicode="%" d="M321 767q34 0 63 -12.5t48.5 -35t26 -46.5t6.5 -43q0 -14 -2 -28q-5 -35 -23.5 -64.5t-45 -52t-59 -35t-66.5 -12.5t-62.5 12.5t-48 34.5t-26.5 46.5t-7 45.5q0 12 2 25q6 35 24 65t44 52.5t58.5 35t67.5 12.5zM311 703q-21 0 -41 -8t-36.5 -21.5t-28 -32t-13.5 -32.5 t-2 -21q0 -13 4.5 -28t17 -28.5t30 -21.5t38.5 -8t41 8t36.5 21.5t27.5 31.5t13 32t2 22q0 13 -4.5 28t-16.5 28.5t-29.5 21.5t-38.5 8zM755 743l-556 -756l-39 26l558 754zM648 316q34 0 63 -12.5t48.5 -35t26 -46.5t6.5 -43q0 -14 -4 -38.5t-22 -54t-44.5 -52t-59 -35 t-66.5 -12.5t-62.5 12.5t-48 34.5t-26.5 46t-7 44q0 13 4 37.5t22 54.5t44 52.5t58.5 35t67.5 12.5zM638 252q-21 0 -41 -8t-36.5 -21.5t-28 -32t-13.5 -32.5t-2 -21q0 -13 4.5 -28t16.5 -28.5t29.5 -21.5t38.5 -8t41 8t36.5 21.5t28 31.5t13.5 32t2 22q0 13 -4.5 28 t-16.5 28.5t-29.5 21.5t-38.5 8z"/>
<glyph glyph-name="ampersand" horiz-adv-x="695" unicode="&amp;" d="M388 497q18 12 36.5 24.5t34.5 26.5t27.5 31t14.5 40q1 7 1 13q0 26 -19 45t-52 19q-17 0 -33 -6.5t-29 -17.5t-22 -26t-12 -33q-2 -14 0 -26.5t7 -24.5t11.5 -23t12.5 -22l14 -25zM517 106q-29 -23 -60 -44t-63.5 -38t-67 -27t-69.5 -10q-43 0 -80.5 15.5t-63.5 42.5 t-36 58t-10 58q0 16 3 32q7 47 28.5 83t52 65t67.5 53t76 47l10 6q-10 18 -20.5 36.5t-18.5 38t-10.5 35.5t-2.5 26q0 12 2 24q6 36 23 65.5t42.5 50.5t57.5 32.5t67 11.5q32 0 59.5 -11t46.5 -30.5t26 -41.5t7 -41q0 -11 -2 -24q-5 -34 -21 -60.5t-38.5 -49t-49.5 -41.5 t-54 -37l127 -203l101 99l53 -50l-114 -112l102 -165h-106zM303 361q-24 -15 -48.5 -31t-45.5 -35.5t-36.5 -43t-19.5 -52.5q-2 -11 -2 -22q0 -15 5.5 -34.5t21 -38t37.5 -30t49 -11.5q28 0 56.5 10t55.5 25.5t52.5 34t48.5 36.5l-134 216z"/>
<glyph glyph-name="quotesingle" horiz-adv-x="289" unicode="&apos;" d="M311 754l-70 -328h-58l34 328h94z"/>
<glyph glyph-name="parenleft" horiz-adv-x="287" unicode="(" d="M374 754q-60 -114 -98 -235t-58.5 -246.5t-20.5 -248.5q0 -118 25 -230l-76 -34q-17 56 -24.5 120.5t-7.5 131.5t6.5 134t15.5 128q10 61 25 128t36 134t49 131.5t63 120.5z"/>
<glyph glyph-name="parenright" horiz-adv-x="287" unicode=")" d="M228 788q17 -56 24.5 -118.5t7.5 -125.5q0 -4 -0.5 -39.5t-6.5 -102.5t-16 -128q-9 -61 -24 -128t-36 -134t-49 -131.5t-63 -120.5l-66 34q61 114 98.5 235t57.5 245t20.5 186.5t0.5 67.5q0 116 -25 226z"/>
<glyph glyph-name="asterisk" horiz-adv-x="592" unicode="*" d="M378 754h75l-28 -140l140 49l13 -72l-142 -38l69 -110l-68 -45l-59 118l-97 -118l-54 45l106 110l-130 38l35 72l124 -49z"/>
<glyph glyph-name="plus" d="M426 498l-32 -203h203l-13 -78h-203l-32 -203h-78l32 203h-203l13 78h203l32 203h78z" unicode="+"/>
<glyph glyph-name="comma" horiz-adv-x="308" unicode="," d="M238 84l-153 -256l-51 22l134 260z"/>
<glyph glyph-name="hyphenminus" horiz-adv-x="208" unicode="-" d="M251 278l-12 -74h-205l12 74h205z"/>
<glyph glyph-name="period" horiz-adv-x="308" unicode="." d="M170 99q23 0 35.5 -14t12.5 -31q0 -5 -2.5 -19t-21.5 -31t-42 -17t-35.5 15t-12.5 32q0 5 2.5 19t21.5 30t42 16z"/>
<glyph glyph-name="slash" horiz-adv-x="570" unicode="/" d="M678 795l-620 -952l-60 30l619 952z"/>
<glyph glyph-name="zero" d="M429 767q48 0 83.5 -18t61 -48.5t41 -70.5t22.5 -83.5t7 -87.5t-6 -83q-11 -70 -40 -139.5t-72.5 -125t-99.5 -90t-120 -34.5q-65 0 -109.5 34.5t-70 90t-30.5 104t-5 75.5q0 43 7 85q6 39 19.5 83t34.5 87.5t49 83.5t62.5 70.5t76 48.5t89.5 18zM417 689 q-53 0 -94.5 -34.5t-71 -84t-47 -104t-23.5 -94.5q-4 -26 -4.5 -46t-0.5 -27q0 -27 3.5 -57.5t12.5 -63t25.5 -57.5t41 -40.5t59.5 -15.5t64.5 15.5t54 40.5t44 57.5t34 66.5t24 67t14.5 60t6 49t1 32q0 24 -3 54t-12 63.5t-25.5 60t-42 42.5t-60.5 16z" unicode="0"/>
<glyph glyph-name="one" d="M265 676l56 78h165l-119 -754h-84l107 676h-125z" unicode="1"/>
<glyph glyph-name="two" d="M541 78l-12 -78h-488l419 417q27 27 46 58t25 68q2 12 2 23q0 18 -6.5 40t-23.5 41.5t-42.5 30.5t-56.5 11q-34 0 -63.5 -12t-52.5 -32.5t-38.5 -49t-21.5 -61.5h-84q9 49 33 92t60 74t81 49t95 18q47 0 87.5 -16.5t68.5 -46t38.5 -62.5t10.5 -62q0 -18 -3 -36 q-8 -46 -27.5 -85.5t-54.5 -73.5l-310 -307h318z" unicode="2"/>
<glyph glyph-name="three" d="M340 435q30 1 58 7t50.5 19.5t38 36.5t21.5 59q2 15 2 28q0 41 -26.5 72.5t-86.5 31.5q-57 0 -93 -33.5t-50 -87.5h-83q23 90 85 144.5t155 54.5q45 0 82 -15t61.5 -42t33 -57.5t8.5 -55.5q0 -17 -3 -36q-4 -25 -14.5 -49.5t-26.5 -46.5t-36.5 -39.5t-45.5 -29.5 q51 -25 66.5 -67t15.5 -78q0 -19 -4 -40q-8 -50 -32.5 -91t-61 -70.5t-82 -46t-93.5 -16.5q-46 0 -84 15t-64 42.5t-36 59t-10 59.5q0 16 3 33h82q-1 -8 -1 -15q0 -20 7.5 -41t24 -38.5t40.5 -27t53 -9.5q31 0 60 12t52 32.5t38.5 48t20.5 58.5q2 16 2 30q0 50 -34 80.5 t-98 30.5h-7z" unicode="3"/>
<glyph glyph-name="four" d="M601 200l-13 -78h-93l-19 -122h-84l19 122h-386l575 674h2l-94 -596h93zM478 541h-2l-291 -341h239z" unicode="4"/>
<glyph glyph-name="five" d="M389 676l-74 -161l45 4q56 0 99 -20.5t70.5 -56t36 -72.5t8.5 -66q0 -23 -4 -48q-9 -59 -38.5 -108t-73 -85t-97 -56t-111.5 -20q-75 0 -128.5 35.5t-81.5 99.5l75 48q18 -46 57 -75.5t93 -29.5q42 0 79 14.5t66.5 40.5t49 61.5t26.5 76.5q2 16 2 31q0 22 -7 49 t-28.5 51.5t-54 38t-71.5 13.5t-77 -13.5t-74 -34.5l166 361h300l-12 -78h-241z" unicode="5"/>
<glyph glyph-name="six" d="M540 720l-211 -234l2 -2q33 11 67 11q51 0 92.5 -20t69.5 -53.5t37 -69.5t9 -65q0 -20 -3 -41q-9 -54 -37 -101t-69 -82.5t-91.5 -55.5t-103.5 -20q-54 0 -98 20.5t-74 55.5t-40.5 72.5t-10.5 67.5q0 21 4 42q8 52 35 96.5t62 84.5l304 341zM314 65q37 0 71 14t62 38 t46.5 56.5t22.5 58.5t4 41q0 20 -6.5 45t-27 48.5t-50.5 37t-66 13.5q-37 0 -71 -13.5t-61.5 -37t-46.5 -55t-23 -57.5t-4 -40q0 -21 7 -47t27 -50t49.5 -38t66.5 -14z" unicode="6"/>
<glyph glyph-name="seven" d="M158 676l12 78h556l-627 -767l-60 39l531 650h-412z" unicode="7"/>
<glyph glyph-name="eight" d="M364 355q-31 0 -59.5 -11.5t-51 -31t-38 -46t-19 -47.5t-3.5 -32q0 -17 6 -38.5t22.5 -41t41 -31t55.5 -11.5t59.5 11.5t51.5 31t38 46t18.5 47.5t3.5 33q0 17 -5.5 38t-22 40.5t-41.5 31t-56 11.5zM429 767q44 0 80 -16t60 -44t32.5 -59t8.5 -56q0 -17 -3 -35 q-8 -50 -39 -95t-79 -70q50 -24 67.5 -65.5t17.5 -78.5q0 -18 -3 -37q-8 -49 -32 -90t-59.5 -71t-80 -46.5t-93.5 -16.5t-88.5 16.5t-65.5 46.5t-35 62.5t-9 59.5q0 19 3 39q10 58 46.5 107.5t93.5 73.5q-40 25 -54.5 63t-14.5 71q0 15 3 31q7 45 29.5 83.5t55.5 66.5t74 44 t85 16zM417 689q-27 0 -52.5 -10t-46 -28t-34.5 -41.5t-18 -50.5q-2 -12 -2 -23q0 -15 5 -33.5t20 -36.5t37.5 -28.5t49.5 -10.5t52.5 10.5t46 28.5t34.5 42t19 51q2 10 2 20q0 16 -5.5 35t-20.5 37t-37.5 28t-49.5 10z" unicode="8"/>
<glyph glyph-name="nine" d="M187 30l212 239l-2 2q-16 -5 -33 -7.5t-34 -2.5q-52 0 -93.5 19.5t-68.5 53.5t-36 70t-9 65q0 20 3 41q8 54 36 100.5t69 81.5t91.5 55t103.5 20t97 -20t74 -55t41 -73t11 -70q0 -19 -3 -39q-8 -51 -35.5 -95.5t-63.5 -85.5l-304 -342zM414 689q-37 0 -71 -14t-61.5 -38 t-46.5 -56t-25 -68q-2 -15 -2 -29q0 -21 7 -46t27 -48.5t50 -37t67 -13.5q36 0 70.5 13.5t62 37t46 55t24.5 68.5q2 15 2 29q0 20 -6.5 45.5t-27 49.5t-50.5 38t-66 14z" unicode="9"/>
<glyph glyph-name="colon" horiz-adv-x="308" unicode=":" d="M170 99q23 0 35.5 -14t12.5 -31q0 -5 -2.5 -19t-21.5 -31t-42 -17t-35.5 15t-12.5 32q0 5 2.5 19t21.5 30t42 16zM230 483q23 0 36 -14.5t13 -30.5q0 -5 -2.5 -19t-21.5 -31t-42 -17t-35.5 15t-12.5 32q0 5 2.5 19t21 30t41.5 16z"/>
<glyph glyph-name="semicolon" horiz-adv-x="308" unicode=";" d="M240 84l-153 -256l-51 22l134 260zM255 483q23 0 36 -14.5t13 -30.5q0 -5 -2.5 -19t-21.5 -31t-42 -17t-35.5 15t-12.5 32q0 5 2.5 19t21 30t41.5 16z"/>
<glyph glyph-name="less" d="M615 413l-392 -157l343 -157l-14 -85l-451 207l11 70l517 207z" unicode="&lt;"/>
<glyph glyph-name="equal" d="M609 373l-12 -78h-484l12 78h484zM584 217l-12 -78h-484l12 78h484z" unicode="="/>
<glyph glyph-name="greater" d="M145 498l451 -207l-11 -70l-517 -207l14 85l393 157l-344 157z" unicode="&gt;"/>
<glyph glyph-name="question" horiz-adv-x="488" unicode="?" d="M458 328q-5 -36 -21.5 -67.5t-42 -55t-58 -37t-68.5 -13.5q-35 0 -63 12.5t-46.5 34.5t-24.5 45.5t-6 43.5q0 13 2 27q6 34 20.5 58.5t36 42.5t48.5 30.5t57 21.5q25 7 49 14.5t43.5 19.5t33.5 31t19 50q2 10 2 20q0 33 -22 58.5t-67 25.5q-21 0 -40.5 -7.5t-34.5 -21 t-25 -31.5t-13 -39q-2 -12 -2.5 -24t0.5 -24h-83l4 53q6 39 26 70.5t48.5 54t64 34.5t72.5 12q38 0 69 -14t51.5 -38t27 -50t6.5 -47q0 -15 -2 -31q-6 -37 -25 -73t-50 -61q-30 -23 -68.5 -35.5t-73.5 -22.5q-34 -9 -59.5 -27t-31.5 -56q-1 -7 -1 -13q0 -26 18.5 -46.5 t52.5 -20.5q21 0 37.5 8t28.5 21.5t19.5 30.5t10.5 36h81zM258 99q23 0 35.5 -14t12.5 -31q0 -5 -2.5 -19t-21.5 -31t-42 -17t-35.5 15t-12.5 32q0 5 2.5 19t21.5 30t42 16z"/>
<glyph glyph-name="at" horiz-adv-x="800" unicode="@" d="M316 346q-2 -14 -2 -26q0 -34 19 -64t72 -30q33 0 59 13t45.5 33.5t32 46.5t20.5 53q7 26 7 47q0 29 -18 58.5t-70 29.5q-30 0 -58 -14.5t-50.5 -37.5t-37.5 -51.5t-19 -57.5zM632 566h71l-91 -255q-5 -12 -10 -27t-7 -28t1.5 -21.5t16.5 -8.5q17 0 39.5 16.5t43.5 43.5 t38 61t25 70t8 68q0 26 -8.5 63.5t-41 73.5t-82 54.5t-110.5 18.5q-67 0 -127 -24t-107.5 -66.5t-79.5 -101t-43 -126.5q-5 -31 -5 -59q0 -38 12.5 -84t49.5 -88t92.5 -64.5t123.5 -22.5q127 0 199 46l62 -51q-57 -27 -123 -47t-157 -20q-81 0 -147 29.5t-110 81.5 t-59.5 108.5t-15.5 102.5q0 33 6 68q13 83 54 154.5t101 124t134 82t154 29.5q66 0 122.5 -20.5t99.5 -65.5q45 -45 62.5 -92t17.5 -90q0 -23 -4 -47q-10 -62 -34.5 -116.5t-61.5 -93.5q-44 -48 -86 -67t-75 -19h-6q-21 1 -33 16.5t-12 44.5q-29 -26 -64.5 -43.5 t-80.5 -17.5q-33 0 -61 14t-47.5 39t-26 51.5t-6.5 47.5q0 15 2 31q7 45 28 87.5t53 75.5t72.5 53t87.5 20q38 0 68 -15.5t54 -54.5z"/>
<glyph glyph-name="A" horiz-adv-x="699" unicode="A" d="M223 214l-125 -214h-92l473 790l214 -790h-93l-55 214h-322zM446 594l-177 -302h255z"/>
<glyph glyph-name="B" horiz-adv-x="568" unicode="B" d="M172 78h84q35 0 70.5 5.5t65.5 20.5t51 42t28 70q2 14 2 27q0 26 -12 48t-39.5 36t-63.5 18.5t-70 4.5h-73zM195 754h124q51 0 95.5 -10t75 -34t42 -55.5t11.5 -62.5q0 -20 -4 -42q-8 -46 -31.5 -83.5t-65.5 -63.5q65 -17 90 -63.5t25 -93.5q0 -18 -3 -36 q-9 -56 -36.5 -96t-68 -65.5t-91.5 -37t-107 -11.5h-175zM227 422h32q36 0 68.5 3.5t58.5 16.5t44 38.5t25 69.5q3 19 3 34q0 20 -7 39.5t-28 32.5t-52.5 16.5t-70.5 3.5h-33z"/>
<glyph glyph-name="C" horiz-adv-x="717" unicode="C" d="M744 589q-38 47 -93 73.5t-121 26.5q-63 0 -122.5 -25.5t-107.5 -68.5t-80.5 -99.5t-39.5 -100t-7 -67.5q0 -36 12 -81t46.5 -88t86.5 -68.5t115 -25.5q64 0 128 27.5t116 72.5l-16 -104q-55 -35 -116 -54.5t-121 -19.5q-80 0 -146.5 30.5t-112 83t-62 109.5t-16.5 103 q0 30 5 61q13 81 55 152.5t104 125t138.5 84.5t157.5 31q127 0 214 -74z"/>
<glyph glyph-name="D" horiz-adv-x="678" unicode="D" d="M195 754h142q42 0 80.5 -3.5t73 -13.5t66 -28t60.5 -46q56 -56 70.5 -114t14.5 -105q0 -33 -5 -68q-14 -83 -55 -154t-113 -127q-39 -30 -76 -48.5t-75 -29t-78 -14t-84 -3.5h-140zM233 78q34 0 66.5 3t63.5 11.5t61 24t60 39.5q54 44 86 101t43 120q4 26 4 51 q0 38 -12 85t-54 90q-45 46 -100.5 59.5t-122.5 13.5h-61l-95 -598h61z"/>
<glyph glyph-name="E" horiz-adv-x="534" unicode="E" d="M195 754h391l-12 -78h-307l-35 -224h298l-13 -78h-298l-47 -296h307l-12 -78h-391z"/>
<glyph glyph-name="F" horiz-adv-x="478" unicode="F" d="M267 676l-35 -224h251l-13 -78h-251l-59 -374h-84l119 754h343l-12 -78h-259z"/>
<glyph glyph-name="G" horiz-adv-x="820" unicode="G" d="M837 379q-5 -38 -13 -73t-21.5 -68t-34 -64t-51.5 -61q-62 -60 -141 -93t-158 -33q-80 0 -145.5 31t-110 83.5t-60.5 109.5t-16 104q0 29 5 60q13 81 55.5 152.5t104 124.5t138 84t157.5 31q100 0 173 -42.5t121 -120.5l-70 -57q-37 67 -95 104.5t-142 37.5 q-65 0 -125 -25.5t-108.5 -68.5t-81.5 -100t-43 -121q-4 -23 -4 -46q0 -35 11.5 -79.5t46.5 -87.5q35 -42 87 -69t112 -27q49 0 100 17t94 48.5t73.5 74.5t39.5 96h-224l12 78h314z"/>
<glyph glyph-name="H" horiz-adv-x="714" unicode="H" d="M621 448l48 306h84l-119 -754h-84l59 370h-386l-59 -370h-84l119 754h84l-48 -306h386z"/>
<glyph glyph-name="I" horiz-adv-x="239" unicode="I" d="M162 0h-84l119 754h84z"/>
<glyph glyph-name="J" horiz-adv-x="314" unicode="J" d="M261 157q-4 -23 -8 -45.5t-11.5 -44.5t-18.5 -43t-28 -40q-28 -31 -64.5 -46.5t-74.5 -15.5t-69.5 16t-55.5 40l57 65q17 -19 35 -31t47 -12q31 0 50 16t30.5 40t17.5 51.5t9 49.5l94 597h84z"/>
<glyph glyph-name="K" horiz-adv-x="611" unicode="K" d="M600 754h113l-409 -351l302 -403h-116l-254 346l-25 -21l-51 -325h-84l119 754h84l-51 -323z"/>
<glyph glyph-name="L" horiz-adv-x="375" unicode="L" d="M172 78h208l-12 -78h-292l119 754h84z"/>
<glyph glyph-name="M" horiz-adv-x="896" unicode="M" d="M300 797l174 -633l375 633l27 -797h-86l-16 510h-2l-329 -541l-156 541h-2l-178 -510h-86z"/>
<glyph glyph-name="N" horiz-adv-x="834" unicode="N" d="M205 786l491 -616l92 584h84l-124 -788l-491 615l-92 -581h-84z"/>
<glyph glyph-name="O" horiz-adv-x="862" unicode="O" d="M552 767q81 0 147.5 -30.5t112 -84t61.5 -110.5t16 -104q0 -30 -9 -86.5t-51.5 -127.5t-104.5 -123.5t-138 -83t-157 -30.5t-147.5 30.5t-111.5 83t-61 109.5t-16 104q0 30 9 86.5t51 127.5t104 124.5t138 84t157 30.5zM540 689q-65 0 -125 -24.5t-108.5 -67t-81.5 -99.5 t-40 -102t-7 -69q0 -37 12 -82t47 -87.5t87.5 -67.5t116.5 -25t124.5 25t109 67.5t82 99t40.5 101.5t7 69q0 37 -12 82.5t-47 88t-87.5 67t-117.5 24.5z"/>
<glyph glyph-name="P" horiz-adv-x="503" unicode="P" d="M160 0h-84l119 754h124q49 0 96.5 -6t84.5 -34q38 -29 49.5 -66.5t11.5 -69.5q0 -18 -3 -36q-8 -46 -33 -89.5t-65 -72.5q-43 -32 -91 -41t-96 -9h-61zM225 408h56q35 0 67 6t58 21.5t44 41.5t24 67q3 17 3 31q0 25 -10.5 46.5t-36 34.5t-60.5 16.5t-72 3.5h-31z"/>
<glyph glyph-name="Q" horiz-adv-x="862" unicode="Q" d="M684 168q97 88 116 209q4 26 4 50q0 37 -12 82.5t-47 88t-87.5 67t-117.5 24.5t-125 -24.5t-108.5 -67t-81.5 -99.5t-40 -102t-7 -69q0 -37 12 -82t47 -87.5t87.5 -67.5t116.5 -25q42 0 90.5 15t86.5 41l-153 183h110zM668 61q-53 -35 -117.5 -54.5t-121.5 -19.5 q-81 0 -147.5 30.5t-111.5 83t-61 109.5t-16 104q0 30 9 86.5t51 127.5t104 124.5t138 84t157 30.5q82 0 148.5 -31t111.5 -84.5t60.5 -110.5t15.5 -104q0 -31 -5 -63q-12 -79 -50 -144t-101 -122l95 -115h-107z"/>
<glyph glyph-name="R" horiz-adv-x="542" unicode="R" d="M224 405h26q36 0 71 4.5t64 19t50 41t28 70.5q3 17 3 32q0 24 -9.5 46.5t-34 36t-58.5 17.5t-72 4h-25zM160 0h-84l119 754h109q54 0 102.5 -8.5t83 -31.5t48 -56t13.5 -67q0 -21 -4 -45q-7 -44 -26 -80.5t-47.5 -63.5t-66 -43.5t-81.5 -20.5l186 -338h-103l-176 331h-21 z"/>
<glyph glyph-name="S" horiz-adv-x="559" unicode="S" d="M514 607q-17 39 -43 60.5t-74 21.5q-25 0 -49 -8.5t-43.5 -24t-33 -37t-17.5 -47.5q-1 -8 -1 -15q0 -15 7 -30.5t22 -29.5t34 -24t37 -19l46 -22q34 -16 64.5 -34.5t51.5 -43t28 -50t7 -47.5q0 -17 -3 -37q-8 -50 -33.5 -92.5t-62.5 -73.5t-83 -49t-95 -18q-45 0 -82 14 t-63.5 39.5t-41.5 61.5t-17 80l85 23q0 -29 8.5 -54.5t25 -44.5t41 -30t54.5 -11t60 11t54.5 30.5t42 46.5t22.5 59q2 13 2 24q0 18 -6.5 36.5t-23.5 35.5t-40.5 29.5t-47.5 24.5l-42 20q-31 15 -58 32t-46 39t-25.5 45.5t-6.5 44.5q0 15 2 32q7 44 30 79.5t56 60.5t73 38.5 t82 13.5q63 0 109.5 -30.5t67.5 -86.5z"/>
<glyph glyph-name="T" horiz-adv-x="470" unicode="T" d="M276 0h-84l107 676h-182l12 78h450l-12 -78h-184z"/>
<glyph glyph-name="U" horiz-adv-x="685" unicode="U" d="M206 305q-3 -21 -6.5 -43t-4 -34.5t-0.5 -14.5q0 -19 3.5 -38.5t14.5 -37.5q19 -35 58.5 -53.5t81.5 -18.5q41 0 84 17.5t75 49.5q18 18 29 39t17.5 43.5t10.5 45.5t7 45l71 449h84l-74 -472q-5 -31 -11.5 -58.5t-17 -53.5t-27.5 -50t-43 -47q-46 -42 -103 -64t-114 -22 q-54 0 -102.5 19.5t-80.5 57.5q-21 24 -31.5 48.5t-13.5 46t-3 37.5q0 12 2 33t7 53l74 472h84z"/>
<glyph glyph-name="V" horiz-adv-x="624" unicode="V" d="M340 179l306 575h91l-432 -799l-180 799h91z"/>
<glyph glyph-name="W" horiz-adv-x="1091" unicode="W" d="M332 189l340 604l148 -604l287 565h91l-414 -793l-148 607l-340 -607l-164 793h91z"/>
<glyph glyph-name="X" horiz-adv-x="564" unicode="X" d="M151 754h96l109 -284l199 284h96l-261 -364l161 -390h-96l-124 310l-222 -310h-96l285 390z"/>
<glyph glyph-name="Y" horiz-adv-x="593" unicode="Y" d="M127 754h97l139 -336l245 336h97l-315 -430l-51 -324h-84l51 324z"/>
<glyph glyph-name="Z" horiz-adv-x="586" unicode="Z" d="M566 78l-12 -78h-540l518 676h-359l12 78h499l-519 -676h401z"/>
<glyph glyph-name="bracketleft" horiz-adv-x="315" unicode="[" d="M160 -166h108l-12 -74h-190l163 1028h190l-12 -74h-108z"/>
<glyph glyph-name="backslash" horiz-adv-x="570" unicode="\" d="M215 825l337 -825l-70 -30l-338 825z"/>
<glyph glyph-name="bracketright" horiz-adv-x="315" unicode="]" d="M242 714h-108l12 74h190l-163 -1028h-190l12 74h108z"/>
<glyph glyph-name="asciicircum" d="M391 754h72l138 -432h-89l-101 328l-207 -328h-87z" unicode="^"/>
<glyph glyph-name="underscore" horiz-adv-x="500" unicode="_" d="M480 -125h-500l8 50h500z"/>
<glyph glyph-name="grave" horiz-adv-x="358" unicode="`" d="M280 744l93 -164l-55 -28l-128 154z"/>
<glyph glyph-name="a" horiz-adv-x="577" unicode="a" d="M336 409q-35 0 -65.5 -14t-54 -37.5t-39.5 -54t-21 -63.5q-3 -19 -3 -37q0 -15 3.5 -38.5t19.5 -48.5t42 -40t64 -15q39 0 70.5 14.5t55 39t38.5 56.5t21 68q3 18 3 34t-4.5 39.5t-21 46.5t-44 36.5t-64.5 13.5zM505 0h-80l10 65h-2q-74 -78 -174 -78q-52 0 -90.5 20.5 t-62.5 54.5t-30.5 67.5t-6.5 58.5q0 23 4 46q8 50 30.5 95.5t57 79.5t79.5 54t98 20q48 0 87 -21t62 -59h2l10 67h80z"/>
<glyph glyph-name="b" horiz-adv-x="577" unicode="b" d="M366 409q-35 0 -65.5 -14t-54 -37.5t-39.5 -54t-21 -63.5q-3 -19 -3 -37q0 -15 3.5 -38.5t19.5 -48.5t42 -40t64 -15q39 0 70.5 14.5t55 39t38.5 56.5t21 68q3 18 3 34t-4.5 39.5t-21 46.5t-44 36.5t-64.5 13.5zM203 825h80l-67 -422h2q35 38 80 59t93 21q52 0 91 -20 t63 -54t30.5 -68t6.5 -59q0 -23 -4 -47q-8 -49 -31 -94t-57.5 -79t-79 -54.5t-96.5 -20.5q-49 0 -88 20t-62 58h-2l-10 -65h-80z"/>
<glyph glyph-name="c" horiz-adv-x="476" unicode="c" d="M477 330h-2q-22 35 -53.5 57t-79.5 22q-36 0 -69 -14t-59 -38t-43 -55.5t-21.5 -57t-4.5 -41.5q0 -18 5.5 -42t23 -48t45 -38t64.5 -14q51 0 90.5 21.5t74.5 59.5h2l-16 -107q-38 -23 -76.5 -35.5t-80.5 -12.5q-53 0 -96 19t-71 52t-37.5 69.5t-9.5 66.5q0 20 3 41 q8 52 35 97.5t66.5 79t88 52.5t100.5 19q38 0 74 -12t64 -35z"/>
<glyph glyph-name="d" horiz-adv-x="577" unicode="d" d="M336 409q-35 0 -65.5 -14t-54 -37.5t-39.5 -54t-21 -63.5q-3 -19 -3 -37q0 -15 3.5 -38.5t19.5 -48.5t42 -40t64 -15q39 0 70.5 14.5t55 39t38.5 56.5t21 68q3 18 3 34t-4.5 39.5t-21 46.5t-44 36.5t-64.5 13.5zM435 65h-2q-35 -38 -80.5 -58t-93.5 -20q-52 0 -90.5 20.5 t-62.5 54.5t-30.5 67.5t-6.5 58.5q0 23 4 46q8 50 30.5 95.5t57 79.5t79.5 54t98 20q48 0 87 -21t62 -59h2l67 422h80l-131 -825h-80z"/>
<glyph glyph-name="e" horiz-adv-x="519" unicode="e" d="M151 218q-2 -14 -2 -27q0 -18 5.5 -40.5t22 -43.5t43 -33.5t60.5 -12.5q51 0 89.5 27.5t68.5 69.5l62 -39q-44 -63 -105 -97.5t-133 -34.5q-53 0 -92.5 19t-64 51.5t-32 66.5t-7.5 60q0 22 4 45q8 52 30.5 98.5t57 81t80 54.5t100.5 20q57 0 96.5 -21.5t62.5 -58.5 t26.5 -69t3.5 -48q0 -33 -7 -68h-369zM446 286q0 25 -8.5 47.5t-24 39.5t-37.5 26.5t-48 9.5t-51.5 -9.5t-48 -26.5t-39 -39.5t-24.5 -47.5h281z"/>
<glyph glyph-name="f" horiz-adv-x="274" unicode="f" d="M163 0h-80l63 396h-44l11 74h44l30 187q5 29 12.5 62.5t27.5 59.5q25 32 60 45.5t71 13.5q14 0 27.5 -2.5t27.5 -7.5l-13 -81q-13 5 -25 8t-27 3q-24 0 -38.5 -8.5t-23.5 -25t-13.5 -40.5t-9.5 -55l-26 -159h119l-11 -74h-119z"/>
<glyph glyph-name="g" horiz-adv-x="580" unicode="g" d="M331 409q-35 0 -65.5 -14t-54 -37.5t-39.5 -54t-21 -63.5q-3 -19 -3 -37q0 -15 3.5 -38.5t19.5 -48.5t42 -40t64 -15q39 0 70.5 14.5t55 39t38.5 56.5t21 68q3 18 3 34t-4.5 39.5t-21 46.5t-44 36.5t-64.5 13.5zM504 23q-5 -28 -10 -54.5t-13.5 -51.5t-22 -49t-34.5 -47 q-40 -42 -91 -62.5t-104 -20.5q-49 0 -88.5 15t-66 43t-36 60.5t-9.5 61.5q0 17 3 36h80q-2 -14 -2 -26q0 -18 5.5 -38.5t22.5 -39t43 -28.5t58 -10q46 0 78 16t53 43t33 62.5t18 75.5l9 56h-2q-34 -37 -80.5 -57.5t-94.5 -20.5q-51 0 -89.5 20t-62.5 54t-30.5 67.5 t-6.5 58.5q0 23 6 59t29 81.5t58 80t80 55t97 20.5q49 0 87 -21t61 -59h2l10 67h80z"/>
<glyph glyph-name="h" horiz-adv-x="528" unicode="h" d="M287 825l-65 -410l1 -2q31 34 66 52t79 18q49 0 77.5 -16.5t42 -44.5t14 -49t0.5 -25q0 -33 -6 -69l-44 -279h-80l42 265q4 28 5 44.5t1 22.5q0 19 -5.5 36t-23.5 29t-53 12q-41 0 -67.5 -17.5t-42 -44.5t-24 -60t-13.5 -64l-35 -223h-80l131 825h80z"/>
<glyph glyph-name="i" horiz-adv-x="262" unicode="i" d="M171 0h-80l74 470h80zM243 704q23 0 35.5 -15t12.5 -32q0 -5 -1 -10q-4 -24 -23.5 -40.5t-42.5 -16.5t-36 14.5t-13 32.5q0 5 1 10q4 23 24 40t43 17z"/>
<glyph glyph-name="j" horiz-adv-x="262" unicode="j" d="M129 -264h-80l116 734h80zM243 704q23 0 35.5 -15t12.5 -32q0 -5 -1 -10q-4 -24 -23.5 -40.5t-42.5 -16.5t-36 14.5t-13 32.5q0 5 1 10q4 23 24 40t43 17z"/>
<glyph glyph-name="k" horiz-adv-x="470" unicode="k" d="M199 296l198 174h107l-232 -200l196 -270h-106l-155 214l-24 -21l-31 -193h-80l131 825h80z"/>
<glyph glyph-name="l" horiz-adv-x="227" unicode="l" d="M154 0h-80l131 825h80z"/>
<glyph glyph-name="m" horiz-adv-x="768" unicode="m" d="M222 419h2q24 29 55.5 46.5t67.5 17.5q42 0 73.5 -20.5t44.5 -57.5q27 39 68.5 58.5t84.5 19.5q45 0 71.5 -17t39 -44.5t13 -48t0.5 -25.5q0 -31 -5 -62l-45 -286h-80l43 273q4 23 5.5 38t1.5 22q0 17 -5 34t-20 29.5t-46 12.5q-35 0 -57.5 -15t-36.5 -38.5t-22 -51.5 t-12 -55l-39 -249h-80l42 267q3 22 4.5 38t1.5 23q0 17 -4.5 35t-19 32t-43.5 14q-35 0 -58.5 -16t-38 -40.5t-22.5 -53.5t-12 -56l-38 -243h-80l74 470h80z"/>
<glyph glyph-name="n" horiz-adv-x="528" unicode="n" d="M221 413h2q31 34 66 52t79 18q49 0 77.5 -16.5t42 -44.5t14 -49t0.5 -25q0 -33 -6 -69l-44 -279h-80l42 265q4 28 5 44.5t1 22.5q0 19 -5.5 36t-23.5 29t-53 12q-41 0 -67.5 -17.5t-42 -44.5t-24 -60t-13.5 -64l-35 -223h-80l74 470h80z"/>
<glyph glyph-name="o" horiz-adv-x="562" unicode="o" d="M279 -13q-51 0 -93 19t-70.5 52.5t-38 69.5t-9.5 66q0 20 5.5 56t32 81t65 79t86.5 53.5t100 19.5t94 -19.5t70 -53.5t37.5 -70t9.5 -66q0 -20 -5.5 -56t-32 -81t-65.5 -78.5t-87 -52.5t-99 -19zM346 409q-37 0 -70 -14t-59 -37.5t-43 -55t-21.5 -57.5t-4.5 -41 q0 -19 6 -43.5t24.5 -48.5t47 -37.5t65.5 -13.5t70 13.5t58.5 37.5t42.5 55.5t21.5 57.5t4.5 41q0 19 -6 43.5t-24 48t-46.5 37.5t-65.5 14z"/>
<glyph glyph-name="p" horiz-adv-x="577" unicode="p" d="M366 409q-35 0 -65.5 -14t-54 -37.5t-39.5 -54t-21 -63.5q-3 -19 -3 -37q0 -15 3.5 -38.5t19.5 -48.5t42 -40t64 -15q39 0 70.5 14.5t55 39t38.5 56.5t21 68q3 18 3 34t-4.5 39.5t-21 46.5t-44 36.5t-64.5 13.5zM216 403h2q35 39 80 59.5t94 20.5q52 0 90.5 -20.5 t62.5 -55t30.5 -68.5t6.5 -58q0 -23 -4 -47q-8 -50 -30.5 -95t-57 -79t-79.5 -53.5t-98 -19.5q-48 0 -87 20.5t-62 58.5h-2l-52 -330h-80l116 734h80z"/>
<glyph glyph-name="q" horiz-adv-x="577" unicode="q" d="M336 409q-35 0 -65.5 -14t-54 -37.5t-39.5 -54t-21 -63.5q-3 -19 -3 -37q0 -15 3.5 -38.5t19.5 -48.5t42 -40t64 -15q39 0 70.5 14.5t55 39t38.5 56.5t21 68q3 18 3 34t-4.5 39.5t-21 46.5t-44 36.5t-64.5 13.5zM463 -264h-80l52 330h-2q-35 -38 -80 -58.5t-93 -20.5 q-53 0 -91.5 19.5t-62.5 53.5t-30.5 67.5t-6.5 58.5q0 23 4 47q8 49 30.5 94.5t57 80t79.5 55t97 20.5q48 0 87.5 -20.5t62.5 -59.5h2l10 67h80z"/>
<glyph glyph-name="r" horiz-adv-x="335" unicode="r" d="M218 419h2q26 28 50.5 46t63.5 18q20 0 36.5 -6t32.5 -16l-50 -73q-11 8 -19.5 14.5t-24.5 6.5q-33 0 -54.5 -18.5t-35 -45.5t-20 -57t-10.5 -53l-37 -235h-80l74 470h80z"/>
<glyph glyph-name="s" horiz-adv-x="399" unicode="s" d="M323 361q-5 19 -19.5 33.5t-36.5 14.5q-21 0 -42 -14.5t-24 -37.5q-3 -16 4.5 -27.5t21.5 -21t32 -17t38 -16.5q19 -9 37 -20t30.5 -26.5t17 -32t4.5 -30.5q0 -12 -2 -26q-5 -33 -22 -61.5t-42 -48.5t-55.5 -31.5t-63.5 -11.5q-60 0 -98.5 31.5t-48.5 87.5l76 30 q10 -33 27 -54t57 -21q32 0 57 20t30 52q1 6 1 12q0 18 -11.5 32t-33 26t-47.5 22.5t-47 26t-31.5 35t-10.5 40.5q0 11 2 23q5 30 20 54.5t37 42t48.5 27t55.5 9.5q41 0 71 -25t41 -62z"/>
<glyph glyph-name="t" horiz-adv-x="240" unicode="t" d="M160 0h-80l63 396h-49l11 74h49l27 169h80l-27 -169h84l-11 -74h-84z"/>
<glyph glyph-name="u" horiz-adv-x="512" unicode="u" d="M183 208q-5 -30 -5.5 -45t-0.5 -18q0 -23 7 -41.5t26.5 -30.5t55.5 -12t59 12t37 32t21 46.5t12 56.5l41 262h80l-42 -271q-8 -47 -23.5 -86t-42 -67t-64.5 -43.5t-90 -15.5t-85 15.5t-50.5 43.5t-20 53.5t-2.5 37.5q0 29 6 62l42 271h80z"/>
<glyph glyph-name="v" horiz-adv-x="463" unicode="v" d="M256 154l190 316h90l-309 -501l-152 501h91z"/>
<glyph glyph-name="w" horiz-adv-x="760" unicode="w" d="M257 152l202 354l91 -354l190 318h91l-312 -503l-90 350l-200 -350l-152 503h91z"/>
<glyph glyph-name="x" horiz-adv-x="498" unicode="x" d="M104 470h98l98 -160l148 160h100l-206 -220l155 -250h-97l-119 191l-180 -191h-100l240 250z"/>
<glyph glyph-name="y" horiz-adv-x="498" unicode="y" d="M72 470h93l113 -337l205 337h91l-463 -734h-91l201 308z"/>
<glyph glyph-name="z" horiz-adv-x="519" unicode="z" d="M508 74l-12 -74h-486l402 396h-276l11 74h437l-400 -396h324z"/>
<glyph glyph-name="braceleft" horiz-adv-x="334" unicode="{" d="M99 306q27 8 44 21.5t28 33.5t17.5 46t11.5 59l29 187q5 30 18 55t29 43t32.5 27.5t27.5 9.5h73l-12 -74h-40q-27 0 -35 -20.5t-13 -55.5l-30 -189q-7 -44 -22 -75.5t-31.5 -52.5t-30.5 -32.5t-20 -14.5q4 -3 15 -14.5t20.5 -32.5t13.5 -44t4 -39q0 -21 -4 -46l-30 -188 q-5 -28 -5 -47q0 -5 1 -17t28 -12h40l-12 -74h-73q-11 0 -24 9.5t-23.5 27.5t-14.5 37t-4 34q0 13 2 27l30 186q5 33 6.5 50.5t1.5 24.5q0 17 -4 34t-17 30.5t-37 21.5z"/>
<glyph glyph-name="bar" horiz-adv-x="570" unicode="|" d="M290 -214h-78l158 1000h78z"/>
<glyph glyph-name="braceright" horiz-adv-x="334" unicode="}" d="M321 242q-27 -8 -44 -21.5t-27.5 -33.5t-17 -46.5t-11.5 -59.5l-30 -186q-5 -30 -17.5 -55t-28.5 -43t-32.5 -27.5t-27.5 -9.5h-73l12 74h40q27 0 34.5 20.5t13.5 55.5l30 188q7 44 22 76t31 53t30.5 32.5t19.5 14.5q-4 3 -14.5 14.5t-20.5 32.5t-13.5 43.5t-3.5 37.5 q0 21 4 47l30 189q4 29 4 48q0 4 -0.5 16t-27.5 12h-40l12 74h73q11 0 24 -9.5t23.5 -27.5t14.5 -36.5t4 -32.5t-3 -29l-29 -187q-5 -33 -6.5 -50t-1.5 -24q0 -17 4 -34t16.5 -30.5t36.5 -21.5z"/>
<glyph glyph-name="asciitilde" d="M98 200q15 30 33.5 56.5t38.5 47t43 32t47 11.5q26 0 52 -14t50 -31q11 -8 22.5 -17.5t22.5 -17.5t22 -13.5t21 -5.5q21 0 44.5 28t42.5 69l63 -28q-15 -30 -32.5 -56.5t-38 -47t-43.5 -32t-48 -11.5q-26 0 -50.5 14.5t-44.5 29.5q-30 22 -53 38t-43 16q-21 0 -43 -27.5 t-42 -68.5z" unicode="~"/>
<glyph glyph-name="nonbreakingspace" horiz-adv-x="308" unicode=" "/>
<glyph glyph-name="exclamdown" horiz-adv-x="338" unicode="¡" d="M245 483q23 0 36 -14.5t13 -30.5q0 -5 -2.5 -19t-21.5 -31t-42 -17t-35.5 15t-12.5 32q0 5 2.5 19t21 30t41.5 16zM165 -284h-82l95 601h82z"/>
<glyph glyph-name="cent" d="M567 481h-2q-17 28 -44 49.5t-62 26.5l-54 -344q38 5 72 28t60 52h2l-17 -107q-29 -18 -62.5 -31.5t-66.5 -15.5l-18 -112h-66l18 113q-44 5 -78.5 26.5t-57.5 54.5t-31 65.5t-8 57.5q0 18 3 36q7 46 29.5 88.5t55.5 76.5t75 56t90 28l16 106h66l-16 -104q65 -6 113 -44z M393 555q-30 -6 -56.5 -22t-46.5 -39.5t-34 -51.5t-18 -56q-3 -16 -3 -31q0 -14 3.5 -34.5t16 -44t34 -40t50.5 -22.5z" unicode="¢"/>
<glyph glyph-name="sterling" d="M123 268l11 64h100l-14 37q-8 23 -16 44.5t-13.5 43.5t-7 37t-1.5 22q0 18 4 37q7 46 31 85.5t59 68t78 44.5t88 16q49 0 86.5 -17.5t61.5 -47.5t31.5 -62.5t7.5 -58.5q0 -19 -3 -40l-86 -22q3 21 3 42q0 10 -1.5 30.5t-13.5 44t-35.5 37.5t-60.5 14q-29 0 -55.5 -10.5 t-48.5 -28.5t-37 -43t-20 -54q-2 -14 -2 -28q0 -15 4 -36.5t14 -48.5t21 -53.5t18 -52.5h142l-11 -64h-120q2 -11 2 -23q0 -11 -2 -22q-4 -27 -18.5 -56t-31.5 -52l5 -2q13 -5 31.5 -12t38 -14t38 -12t30.5 -5q17 0 31.5 7t27 17.5t23.5 24t21 26.5l61 -41 q-14 -23 -32.5 -44t-40.5 -37t-47 -25.5t-52 -9.5q-31 0 -60.5 9t-56.5 20q-29 11 -55 20t-51 9q-31 0 -55.5 -17.5t-43.5 -43.5l-58 44q30 39 71.5 67.5t89.5 29.5q17 20 29.5 43.5t17.5 49.5q2 12 2 24q0 13 -2 25h-127z" unicode="£"/>
<glyph glyph-name="currency" d="M187 534l35 -42q45 29 85 43.5t88 14.5t83.5 -14.5t71.5 -43.5l49 42l30 -36l-46 -40q21 -43 26 -70t5 -47t-3 -41q-8 -43 -26 -79t-53 -79l34 -40l-42 -36l-35 42q-45 -29 -85 -43.5t-88 -14.5t-83.5 14.5t-71.5 43.5l-49 -42l-30 36l46 40q-20 43 -25.5 69.5t-5.5 45.5 q0 20 4 43q7 43 25 79t53 79l-34 40zM385 486q-41 -1 -78 -15t-67 -38.5t-50 -58.5t-25 -74q-2 -13 -2 -26q0 -24 8 -51.5t30 -53t54 -40.5t71 -15t76 15t67 40.5t50.5 59t27.5 71.5q3 17 3 33q0 22 -7.5 48.5t-29.5 51t-55 38.5t-73 15z" unicode="¤"/>
<glyph glyph-name="yen" d="M307 256h-237l10 64h237l-39 100h-182l10 64h145l-113 270h97l140 -334l244 334h97l-197 -270h145l-10 -64h-182l-71 -100h237l-10 -64h-237l-41 -256h-84z" unicode="¥"/>
<glyph glyph-name="brokenbar" horiz-adv-x="570" unicode="¦" d="M310 -89h-78l39 250h78zM389 411h-78l40 250h78z"/>
<glyph glyph-name="section" horiz-adv-x="592" unicode="§" d="M360 402q-23 0 -44.5 -8.5t-38.5 -23.5t-29 -35t-16 -43q-1 -8 -1 -16q0 -14 4.5 -30.5t17 -31.5t31 -24t41.5 -9t44.5 9t39 24t29.5 35t15 43q2 10 2 19q0 13 -4.5 28.5t-17.5 30.5t-31.5 23.5t-41.5 8.5zM187 4q-2 -16 -2 -30q0 -31 15 -58.5t70 -27.5q48 0 79.5 25.5 t39.5 74.5q2 11 2 20q0 15 -5.5 30t-20 27.5t-34 21.5t-40.5 17q-25 11 -54 23.5t-49 31.5q-28 25 -35 52t-7 49q0 15 2 31q9 55 42.5 98.5t88.5 64.5q-39 21 -54 51.5t-15 60.5q0 14 3 29q6 39 26.5 71t50 54.5t65.5 34.5t74 12q39 0 77 -17.5t56 -49.5q14 -26 16 -50.5 t2 -37.5q0 -21 -3 -41h-80q1 14 1 26q0 38 -16 65.5t-66 27.5q-45 0 -79.5 -26.5t-42.5 -74.5q-2 -10 -2 -19q0 -17 8 -32.5t26.5 -28.5t43 -22t50.5 -19q25 -10 49 -22.5t41 -33t23 -43t6 -42.5q0 -17 -3 -38q-9 -56 -43.5 -95.5t-87.5 -64.5q42 -23 55 -53t13 -60 q0 -16 -3 -33q-6 -41 -25.5 -72.5t-48 -54t-64.5 -34t-75 -11.5q-48 0 -79.5 13.5t-49 38.5t-21 52t-3.5 47t2 42h81z"/>
<glyph glyph-name="dieresis" horiz-adv-x="467" unicode="¨" d="M247 705q23 0 34.5 -13.5t11.5 -30.5q0 -5 -2.5 -19t-20 -29.5t-40.5 -15.5t-35 13.5t-12 30.5q0 5 2.5 19t20.5 29.5t41 15.5zM444 705q23 0 34.5 -13.5t11.5 -30.5q0 -5 -2.5 -19t-20 -29.5t-40.5 -15.5t-35 13.5t-12 30.5q0 5 2.5 19t20.5 29.5t41 15.5z"/>
<glyph glyph-name="copyright" horiz-adv-x="800" unicode="©" d="M398 -13q-82 0 -149 30.5t-111.5 83t-59.5 109.5t-15 103q0 31 9 88t50.5 128.5t102.5 124t137.5 83t158.5 30.5t149 -30.5t111.5 -83t60 -109.5t15.5 -104q0 -31 -9 -87.5t-51 -128t-103 -124t-137.5 -83t-158.5 -30.5zM407 47q67 0 131.5 25.5t117 70.5t89 105t44 108 t7.5 73q0 40 -14 88.5t-52 93.5t-94.5 70.5t-123.5 25.5t-131.5 -25.5t-117 -70.5t-88.5 -105t-43.5 -108t-7.5 -74q0 -40 13.5 -88t52 -93t94.5 -70.5t123 -25.5zM610 457q-2 42 -31 65t-79 23q-41 0 -72.5 -14.5t-54 -38t-36.5 -52.5t-18 -58q-3 -18 -3 -34t4.5 -38.5 t21 -45t43.5 -35.5t65 -13q50 0 85 24t52 67h61q-10 -35 -31 -63t-49 -47.5t-60.5 -30t-66.5 -10.5q-50 0 -87 17.5t-61 48t-31 62t-7 56.5q0 19 3 40q8 48 29.5 89.5t54.5 71.5t75.5 47t93.5 17q69 0 113.5 -39t46.5 -109h-61z"/>
<glyph glyph-name="ordfeminine" horiz-adv-x="346" unicode="ª" d="M289 723q-23 0 -43 -8.5t-35.5 -22.5t-26 -32.5t-13.5 -38.5q-1 -10 -1 -19q0 -11 2.5 -26t13 -30t28 -24t41.5 -9q25 0 45.5 8.5t35.5 23.5t25 34.5t13 40.5q2 10 2 20q0 30 -19.5 56.5t-67.5 26.5zM402 477h-52l6 39h-2q-47 -47 -113 -47q-34 0 -59 12t-40.5 32.5 t-20 41.5t-4.5 36q0 13 2 26q5 30 19 57.5t36 48t51 32.5t64 12q31 0 56.5 -12.5t40.5 -35.5h2l6 40h52z"/>
<glyph glyph-name="guillemotleft" horiz-adv-x="500" unicode="«" d="M444 74l-60 -41l-135 207l202 213l46 -42l-162 -171zM274 74l-60 -41l-135 207l202 213l46 -42l-162 -171z"/>
<glyph glyph-name="logicalnot" d="M519 295h-406l12 78h484l-43 -270h-78z" unicode="¬"/>
<glyph glyph-name="registered" horiz-adv-x="800" unicode="®" d="M398 -13q-82 0 -149 30.5t-111.5 83t-59.5 109.5t-15 103q0 31 9 88t50.5 128.5t102.5 124t137.5 83t158.5 30.5t149 -30.5t111.5 -83t60 -109.5t15.5 -104q0 -31 -9 -87.5t-51 -128t-103 -124t-137.5 -83t-158.5 -30.5zM407 47q67 0 131.5 25.5t117 70.5t89 105t44 108 t7.5 73q0 40 -14 88.5t-52 93.5t-94.5 70.5t-123.5 25.5t-131.5 -25.5t-117 -70.5t-88.5 -105t-43.5 -108t-7.5 -74q0 -40 13.5 -88t52 -93t94.5 -70.5t123 -25.5zM612 166h-72l-97 197h-72l-31 -197h-60l68 427h186q29 0 55.5 -4.5t46 -17.5t27 -30.5t7.5 -35.5 q0 -11 -2 -25q-10 -63 -53 -89.5t-101 -27.5zM453 423q20 0 33.5 -0.5t16.5 -0.5q22 0 44 4.5t39.5 16.5t21.5 38q1 4 1 8q0 11 -7.5 20t-21.5 14.5t-32.5 7.5t-35.5 2h-114l-17 -110h72z"/>
<glyph glyph-name="macron" horiz-adv-x="499" unicode="¯" d="M529 682l-11 -68h-342l11 68h342z"/>
<glyph glyph-name="degree" horiz-adv-x="400" unicode="°" d="M446.5 607.5q-3.5 -21.5 -19.5 -49t-40 -47.5t-53 -32t-60 -12t-56.5 12t-42.5 32t-23 42t-6 40q0 12 2 24q4 31 20 58t39.5 47.5t53 32.5t60.5 12t56.5 -12t42.5 -32.5t23.5 -42.5t6.5 -40q0 -11 -3.5 -32.5zM399 610.5q2 14.5 2 21.5q0 13 -4 28t-16 29t-29.5 22 t-38.5 8t-41 -8t-35.5 -22t-26.5 -32.5t-14 -39.5q-2 -9 -2 -18q0 -31 22.5 -57.5t65.5 -26.5q21 0 41 8t36 21.5t27 32.5t13 33.5z"/>
<glyph glyph-name="plusminus" d="M426 498l-24 -153h203l-13 -78h-203l-24 -153h-78l24 153h-203l13 78h203l24 153h78zM78 78h484l-12 -78h-484z" unicode="±"/>
<glyph glyph-name="twosuperior" horiz-adv-x="369" unicode="²" d="M400 359l-8 -52h-317l268 250q18 17 27.5 35t12.5 41q1 8 1 15q0 27 -20 47t-60 20q-45 0 -72.5 -24t-34.5 -64h-60q6 30 21.5 55.5t38.5 44t52 29.5t61 11q33 0 59.5 -10t44.5 -27.5t24.5 -37.5t6.5 -37q0 -11 -2 -22q-4 -24 -15.5 -50t-31.5 -45l-193 -179h197z"/>
<glyph glyph-name="threesuperior" horiz-adv-x="369" unicode="³" d="M265 571q39 0 68 18t35 52q1 7 1 13q0 27 -20.5 44t-49.5 17q-33 0 -55 -17.5t-30 -49.5h-60q14 54 53.5 86.5t100.5 32.5q30 0 54 -9t40 -25t21.5 -35t5.5 -35q0 -10 -1 -20q-5 -30 -26 -57.5t-53 -41.5q34 -14 44 -40.5t10 -50.5q0 -10 -1 -20q-11 -64 -59 -99 t-115 -35q-30 0 -54.5 9t-41.5 25.5t-23.5 35.5t-6.5 37q0 9 1 18h60q-1 -6 -1 -12q0 -26 20 -43.5t57 -17.5q40 0 68.5 24t34.5 61q1 8 1 15q0 28 -19.5 48t-59.5 20h-7z"/>
<glyph glyph-name="acute" horiz-adv-x="358" unicode="´" d="M393 706l-178 -154l-45 28l145 164z"/>
<glyph glyph-name="mu" horiz-adv-x="512" unicode="µ" d="M183 208q-5 -30 -5.5 -45t-0.5 -18q0 -23 7 -41.5t26.5 -30.5t55.5 -12t59 12t37 32t21 46.5t12 56.5l41 262h80l-42 -271q-8 -47 -23.5 -86t-42 -67t-64.5 -43.5t-90 -15.5q-26 0 -48.5 8t-50.5 39l-47 -298h-80l116 734h80z"/>
<glyph glyph-name="paragraph" horiz-adv-x="592" unicode="¶" d="M643 689h-58l-133 -842h-65l133 842h-81l-133 -842h-65l69 436q-42 0 -76 14.5t-57 42t-32 60.5t-9 65q0 15 2 32q4 45 25.5 91t56 83t79 60t94.5 23h260z"/>
<glyph glyph-name="cedilla" horiz-adv-x="325" unicode="¸" d="M102 -199l-51 28l119 148l70 -30z"/>
<glyph glyph-name="onesuperior" horiz-adv-x="369" unicode="¹" d="M226 707l37 52h112l-71 -452h-60l63 400h-81z"/>
<glyph glyph-name="ordmasculine" horiz-adv-x="337" unicode="º" d="M243 469q-33 0 -60.5 11.5t-46 31.5t-25.5 42t-7 41q0 11 3.5 32t20 48.5t41.5 47.5t56 32t65 12t61.5 -12t46 -32t25.5 -42.5t7 -41.5q0 -11 -3.5 -32t-20.5 -48t-42 -47t-56.5 -31.5t-64.5 -11.5zM284 723q-24 0 -45.5 -8.5t-38 -22.5t-28 -33.5t-14.5 -40.5 q-2 -9 -2 -18q0 -32 23 -59.5t71 -27.5q24 0 45.5 8t38 22.5t28 33.5t14.5 41q2 9 2 18q0 32 -23 59.5t-71 27.5z"/>
<glyph glyph-name="guillemotright" horiz-adv-x="500" unicode="»" d="M241 240l-108 171l60 42l134 -213l-201 -207l-46 41zM411 240l-108 171l60 42l134 -213l-201 -207l-46 41z"/>
<glyph glyph-name="onequarter" horiz-adv-x="924" unicode="¼" d="M212 707l37 52h112l-71 -452h-60l63 400h-81zM844 125l-8 -52h-60l-12 -73h-60l12 73h-245l369 405l-56 -353h60zM754 315h-2l-172 -190h144zM810 743l-559 -756l-40 24l558 756z"/>
<glyph glyph-name="onehalf" horiz-adv-x="924" unicode="½" d="M212 707l37 52h112l-71 -452h-60l63 400h-81zM832 52l-8 -52h-317l269 250q33 31 40 76q1 8 1 15q0 27 -20 47t-60 20q-45 0 -73 -24t-34 -64h-60q5 30 20.5 55.5t39 44t52.5 29.5t61 11q33 0 59.5 -10t44.5 -27.5t24 -37.5t6 -39q0 -10 -1 -20q-4 -24 -15.5 -50 t-31.5 -45l-194 -179h197zM765 743l-559 -756l-40 24l558 756z"/>
<glyph glyph-name="threequarters" horiz-adv-x="924" unicode="¾" d="M864 125l-8 -52h-60l-12 -73h-60l12 73h-245l369 405l-56 -353h60zM774 315h-2l-172 -190h144zM868 743l-559 -756l-40 24l558 756zM309 571q39 0 68 18t35 52q1 7 1 13q0 27 -20.5 44t-49.5 17q-33 0 -55 -17.5t-30 -49.5h-60q14 54 53.5 86.5t100.5 32.5q30 0 54 -9 t40 -25t21.5 -35t5.5 -35q0 -10 -1 -20q-5 -30 -26 -57.5t-53 -41.5q34 -14 44 -40.5t10 -50.5q0 -10 -1 -20q-11 -64 -59 -99t-115 -35q-30 0 -54.5 9t-41.5 25.5t-23.5 35.5t-6.5 37q0 9 1 18h60q-1 -6 -1 -12q0 -26 20 -43.5t57 -17.5q40 0 68.5 24t34.5 61q1 8 1 15 q0 28 -19.5 48t-59.5 20h-7z"/>
<glyph glyph-name="questiondown" horiz-adv-x="488" unicode="¿" d="M105 146q4 36 21 67.5t42.5 55t58.5 37t69 13.5q35 0 62.5 -12.5t46 -34.5t24.5 -46t6 -43q0 -13 -2 -27q-6 -34 -20.5 -58.5t-36 -42.5t-48.5 -30.5t-57 -21.5q-25 -8 -49 -15t-43.5 -19t-33.5 -31t-19 -50q-2 -10 -2 -20q0 -33 22 -58.5t67 -25.5q21 0 40.5 7.5 t34.5 21t25 31.5t13 39q3 16 3 31q0 9 -1 17h83l-4 -53q-6 -39 -26 -70.5t-48.5 -54t-64 -34.5t-72.5 -12q-38 0 -69 14t-51.5 38t-27 50t-6.5 47q0 15 2 31q6 37 25 73t50 61q30 23 69 35.5t74 22.5q33 9 58.5 27t31.5 56q1 7 1 13q0 26 -18.5 46.5t-52.5 20.5 q-21 0 -37.5 -8t-28.5 -21.5t-19.5 -30.5t-10.5 -36h-81zM322 483q23 0 36 -14.5t13 -31.5q0 -5 -2.5 -19t-21.5 -30.5t-42 -16.5t-35.5 14.5t-12.5 31.5q0 5 2.5 19t21 30.5t41.5 16.5z"/>
<glyph glyph-name="Agrave" horiz-adv-x="699" unicode="À" d="M223 214l-125 -214h-92l473 790l214 -790h-93l-55 214h-322zM446 594l-177 -302h255zM452 1003l93 -164l-55 -28l-128 154z"/>
<glyph glyph-name="Aacute" horiz-adv-x="699" unicode="Á" d="M223 214l-125 -214h-92l473 790l214 -790h-93l-55 214h-322zM446 594l-177 -302h255zM645 965l-178 -154l-45 28l145 164z"/>
<glyph glyph-name="Acircumflex" horiz-adv-x="699" unicode="Â" d="M223 214l-125 -214h-92l473 790l214 -790h-93l-55 214h-322zM446 594l-177 -302h255zM507 996l137 -133l-65 -45l-87 85l-112 -85l-50 45z"/>
<glyph glyph-name="Atilde" horiz-adv-x="699" unicode="Ã" d="M223 214l-125 -214h-92l473 790l214 -790h-93l-55 214h-322zM446 594l-177 -302h255zM315 886q23 30 50 54.5t65 24.5q23 0 41.5 -7t35.5 -16q17 -8 32 -15.5t29 -7.5q21 0 36.5 15.5t26.5 32.5l41 -38q-19 -33 -50.5 -57t-68.5 -24q-18 0 -36 7t-35 16q-17 8 -34 15 t-33 7q-21 0 -33.5 -14.5t-23.5 -31.5z"/>
<glyph glyph-name="Adieresis" horiz-adv-x="699" unicode="Ä" d="M223 214l-125 -214h-92l473 790l214 -790h-93l-55 214h-322zM446 594l-177 -302h255zM404 964q23 0 34.5 -13.5t11.5 -30.5q0 -5 -2.5 -19t-20 -29.5t-40.5 -15.5t-35 13.5t-12 30.5q0 5 2.5 19t20.5 29.5t41 15.5zM601 964q23 0 34.5 -13.5t11.5 -30.5q0 -5 -2.5 -19 t-20 -29.5t-40.5 -15.5t-35 13.5t-12 30.5q0 5 2.5 19t20.5 29.5t41 15.5z"/>
<glyph glyph-name="Aring" horiz-adv-x="699" unicode="Å" d="M223 214l-125 -214h-92l473 790l214 -790h-93l-55 214h-322zM446 594l-177 -302h255zM510 1006q40 0 61.5 -25.5t21.5 -55.5q0 -8 -1 -16q-3 -20 -13.5 -38t-26 -31.5t-34.5 -21t-39 -7.5q-41 0 -62.5 25.5t-21.5 54.5q0 9 2 18q3 20 13.5 37.5t26 31t34.5 21t39 7.5z M502 956q-20 0 -36 -13.5t-18 -25.5t-2 -16q0 -15 10.5 -27.5t30.5 -12.5t36 14t18 26t2 16q0 15 -10.5 27t-30.5 12z"/>
<glyph glyph-name="AE" horiz-adv-x="1000" unicode="Æ" d="M222 212l-123 -212h-93l455 754h331l22 -78h-305l58 -225h297l23 -78h-298l76 -295h306l21 -78h-393l-55 212h-322zM445 587l-175 -297h252z"/>
<glyph glyph-name="Ccedilla" horiz-adv-x="717" unicode="Ç" d="M744 589q-38 47 -93 73.5t-121 26.5q-63 0 -122.5 -25.5t-107.5 -68.5t-80.5 -99.5t-39.5 -100t-7 -67.5q0 -36 12 -81t46.5 -88t86.5 -68.5t115 -25.5q64 0 128 27.5t116 72.5l-16 -104q-55 -35 -116 -54.5t-121 -19.5q-80 0 -146.5 30.5t-112 83t-62 109.5t-16.5 103 q0 30 5 61q13 81 55 152.5t104 125t138.5 84.5t157.5 31q127 0 214 -74zM298 -199l-51 28l119 148l70 -30z"/>
<glyph glyph-name="Egrave" horiz-adv-x="534" unicode="È" d="M195 754h391l-12 -78h-307l-35 -224h298l-13 -78h-298l-47 -296h307l-12 -78h-391zM384 1003l93 -164l-55 -28l-128 154z"/>
<glyph glyph-name="Eacute" horiz-adv-x="534" unicode="É" d="M195 754h391l-12 -78h-307l-35 -224h298l-13 -78h-298l-47 -296h307l-12 -78h-391zM562 965l-178 -154l-45 28l145 164z"/>
<glyph glyph-name="Ecircumflex" horiz-adv-x="534" unicode="Ê" d="M195 754h391l-12 -78h-307l-35 -224h298l-13 -78h-298l-47 -296h307l-12 -78h-391zM424 996l137 -133l-65 -45l-87 85l-112 -85l-50 45z"/>
<glyph glyph-name="Edieresis" horiz-adv-x="534" unicode="Ë" d="M195 754h391l-12 -78h-307l-35 -224h298l-13 -78h-298l-47 -296h307l-12 -78h-391zM322 964q23 0 34.5 -13.5t11.5 -30.5q0 -5 -2.5 -19t-20 -29.5t-40.5 -15.5t-35 13.5t-12 30.5q0 5 2.5 19t20.5 29.5t41 15.5zM519 964q23 0 34.5 -13.5t11.5 -30.5q0 -5 -2.5 -19 t-20 -29.5t-40.5 -15.5t-35 13.5t-12 30.5q0 5 2.5 19t20.5 29.5t41 15.5z"/>
<glyph glyph-name="Igrave" horiz-adv-x="239" unicode="Ì" d="M162 0h-84l119 754h84zM237 1003l93 -164l-55 -28l-128 154z"/>
<glyph glyph-name="Iacute" horiz-adv-x="239" unicode="Í" d="M162 0h-84l119 754h84zM400 965l-178 -154l-45 28l145 164z"/>
<glyph glyph-name="Icircumflex" horiz-adv-x="239" unicode="Î" d="M162 0h-84l119 754h84zM277 996l137 -133l-65 -45l-87 85l-112 -85l-50 45z"/>
<glyph glyph-name="Idieresis" horiz-adv-x="239" unicode="Ï" d="M162 0h-84l119 754h84zM174 964q23 0 34.5 -13.5t11.5 -30.5q0 -5 -2.5 -19t-20 -29.5t-40.5 -15.5t-35 13.5t-12 30.5q0 5 2.5 19t20.5 29.5t41 15.5zM371 964q23 0 34.5 -13.5t11.5 -30.5q0 -5 -2.5 -19t-20 -29.5t-40.5 -15.5t-35 13.5t-12 30.5q0 5 2.5 19t20.5 29.5 t41 15.5z"/>
<glyph glyph-name="Eth" horiz-adv-x="678" unicode="Ð" d="M135 370h-76l11 72h76l49 312h142q42 0 80.5 -3.5t73 -13.5t66 -28t60.5 -46q56 -56 70.5 -114t14.5 -105q0 -33 -5 -68q-14 -83 -55 -154t-113 -127q-39 -30 -76 -48.5t-75 -29t-78 -14t-84 -3.5h-140zM233 78q34 0 66.5 3t63.5 11.5t61 24t60 39.5q54 44 86 101t43 120 q4 26 4 51q0 38 -12 85t-54 90q-45 46 -100.5 59.5t-122.5 13.5h-61l-37 -234h134l-11 -72h-134l-47 -292h61z"/>
<glyph glyph-name="Ntilde" horiz-adv-x="834" unicode="Ñ" d="M205 786l491 -616l92 584h84l-124 -788l-491 615l-92 -581h-84zM382 886q23 30 50 54.5t65 24.5q23 0 41.5 -7t35.5 -16q17 -8 32 -15.5t29 -7.5q21 0 36.5 15.5t26.5 32.5l41 -38q-19 -33 -50.5 -57t-68.5 -24q-18 0 -36 7t-35 16q-17 8 -34 15t-33 7q-21 0 -33.5 -14.5 t-23.5 -31.5z"/>
<glyph glyph-name="Ograve" horiz-adv-x="862" unicode="Ò" d="M552 767q81 0 147.5 -30.5t112 -84t61.5 -110.5t16 -104q0 -30 -9 -86.5t-51.5 -127.5t-104.5 -123.5t-138 -83t-157 -30.5t-147.5 30.5t-111.5 83t-61 109.5t-16 104q0 30 9 86.5t51 127.5t104 124.5t138 84t157 30.5zM540 689q-65 0 -125 -24.5t-108.5 -67t-81.5 -99.5 t-40 -102t-7 -69q0 -37 12 -82t47 -87.5t87.5 -67.5t116.5 -25t124.5 25t109 67.5t82 99t40.5 101.5t7 69q0 37 -12 82.5t-47 88t-87.5 67t-117.5 24.5zM533 1003l93 -164l-55 -28l-128 154z"/>
<glyph glyph-name="Oacute" horiz-adv-x="862" unicode="Ó" d="M552 767q81 0 147.5 -30.5t112 -84t61.5 -110.5t16 -104q0 -30 -9 -86.5t-51.5 -127.5t-104.5 -123.5t-138 -83t-157 -30.5t-147.5 30.5t-111.5 83t-61 109.5t-16 104q0 30 9 86.5t51 127.5t104 124.5t138 84t157 30.5zM540 689q-65 0 -125 -24.5t-108.5 -67t-81.5 -99.5 t-40 -102t-7 -69q0 -37 12 -82t47 -87.5t87.5 -67.5t116.5 -25t124.5 25t109 67.5t82 99t40.5 101.5t7 69q0 37 -12 82.5t-47 88t-87.5 67t-117.5 24.5zM726 965l-178 -154l-45 28l145 164z"/>
<glyph glyph-name="Ocircumflex" horiz-adv-x="862" unicode="Ô" d="M552 767q81 0 147.5 -30.5t112 -84t61.5 -110.5t16 -104q0 -30 -9 -86.5t-51.5 -127.5t-104.5 -123.5t-138 -83t-157 -30.5t-147.5 30.5t-111.5 83t-61 109.5t-16 104q0 30 9 86.5t51 127.5t104 124.5t138 84t157 30.5zM540 689q-65 0 -125 -24.5t-108.5 -67t-81.5 -99.5 t-40 -102t-7 -69q0 -37 12 -82t47 -87.5t87.5 -67.5t116.5 -25t124.5 25t109 67.5t82 99t40.5 101.5t7 69q0 37 -12 82.5t-47 88t-87.5 67t-117.5 24.5zM588 996l137 -133l-65 -45l-87 85l-112 -85l-50 45z"/>
<glyph glyph-name="Otilde" horiz-adv-x="862" unicode="Õ" d="M552 767q81 0 147.5 -30.5t112 -84t61.5 -110.5t16 -104q0 -30 -9 -86.5t-51.5 -127.5t-104.5 -123.5t-138 -83t-157 -30.5t-147.5 30.5t-111.5 83t-61 109.5t-16 104q0 30 9 86.5t51 127.5t104 124.5t138 84t157 30.5zM540 689q-65 0 -125 -24.5t-108.5 -67t-81.5 -99.5 t-40 -102t-7 -69q0 -37 12 -82t47 -87.5t87.5 -67.5t116.5 -25t124.5 25t109 67.5t82 99t40.5 101.5t7 69q0 37 -12 82.5t-47 88t-87.5 67t-117.5 24.5zM396 886q23 30 50 54.5t65 24.5q23 0 41.5 -7t35.5 -16q17 -8 32 -15.5t29 -7.5q21 0 36.5 15.5t26.5 32.5l41 -38 q-19 -33 -50.5 -57t-68.5 -24q-18 0 -36 7t-35 16q-17 8 -34 15t-33 7q-21 0 -33.5 -14.5t-23.5 -31.5z"/>
<glyph glyph-name="Odieresis" horiz-adv-x="862" unicode="Ö" d="M552 767q81 0 147.5 -30.5t112 -84t61.5 -110.5t16 -104q0 -30 -9 -86.5t-51.5 -127.5t-104.5 -123.5t-138 -83t-157 -30.5t-147.5 30.5t-111.5 83t-61 109.5t-16 104q0 30 9 86.5t51 127.5t104 124.5t138 84t157 30.5zM540 689q-65 0 -125 -24.5t-108.5 -67t-81.5 -99.5 t-40 -102t-7 -69q0 -37 12 -82t47 -87.5t87.5 -67.5t116.5 -25t124.5 25t109 67.5t82 99t40.5 101.5t7 69q0 37 -12 82.5t-47 88t-87.5 67t-117.5 24.5zM486 964q23 0 34.5 -13.5t11.5 -30.5q0 -5 -2.5 -19t-20 -29.5t-40.5 -15.5t-35 13.5t-12 30.5q0 5 2.5 19t20.5 29.5 t41 15.5zM683 964q23 0 34.5 -13.5t11.5 -30.5q0 -5 -2.5 -19t-20 -29.5t-40.5 -15.5t-35 13.5t-12 30.5q0 5 2.5 19t20.5 29.5t41 15.5z"/>
<glyph glyph-name="multiply" d="M200 498l157 -187l216 187l47 -55l-216 -187l157 -187l-65 -55l-156 187l-217 -187l-46 55l217 187l-158 187z" unicode="×"/>
<glyph glyph-name="Oslash" horiz-adv-x="862" unicode="Ø" d="M724 620q-34 32 -80.5 50.5t-103.5 18.5q-65 0 -125 -24.5t-108.5 -67t-81.5 -99.5t-43 -121q-4 -26 -4 -51q0 -27 7.5 -64.5t32.5 -77.5zM256 138q35 -35 81.5 -54t103.5 -19q64 0 124.5 25t109 67.5t82 99t43.5 120.5q4 25 4 48q0 30 -8 68.5t-34 80.5zM151 126 q-35 51 -46.5 100.5t-11.5 87.5q0 30 5 62q13 81 55 152t104 124.5t138 84t157 30.5q72 0 132 -24t105 -67l106 91l39 -45l-106 -91q37 -51 49 -102t12 -92q0 -30 -5 -61q-13 -81 -55.5 -152t-104.5 -123.5t-138 -83t-157 -30.5q-73 0 -134 24.5t-106 68.5l-105 -90l-36 47z "/>
<glyph glyph-name="Ugrave" horiz-adv-x="685" unicode="Ù" d="M206 305q-3 -21 -6.5 -43t-4 -34.5t-0.5 -14.5q0 -19 3.5 -38.5t14.5 -37.5q19 -35 58.5 -53.5t81.5 -18.5q41 0 84 17.5t75 49.5q18 18 29 39t17.5 43.5t10.5 45.5t7 45l71 449h84l-74 -472q-5 -31 -11.5 -58.5t-17 -53.5t-27.5 -50t-43 -47q-46 -42 -103 -64t-114 -22 q-54 0 -102.5 19.5t-80.5 57.5q-21 24 -31.5 48.5t-13.5 46t-3 37.5q0 12 2 33t7 53l74 472h84zM445 1003l93 -164l-55 -28l-128 154z"/>
<glyph glyph-name="Uacute" horiz-adv-x="685" unicode="Ú" d="M206 305q-3 -21 -6.5 -43t-4 -34.5t-0.5 -14.5q0 -19 3.5 -38.5t14.5 -37.5q19 -35 58.5 -53.5t81.5 -18.5q41 0 84 17.5t75 49.5q18 18 29 39t17.5 43.5t10.5 45.5t7 45l71 449h84l-74 -472q-5 -31 -11.5 -58.5t-17 -53.5t-27.5 -50t-43 -47q-46 -42 -103 -64t-114 -22 q-54 0 -102.5 19.5t-80.5 57.5q-21 24 -31.5 48.5t-13.5 46t-3 37.5q0 12 2 33t7 53l74 472h84zM638 965l-178 -154l-45 28l145 164z"/>
<glyph glyph-name="Ucircumflex" horiz-adv-x="685" unicode="Û" d="M206 305q-3 -21 -6.5 -43t-4 -34.5t-0.5 -14.5q0 -19 3.5 -38.5t14.5 -37.5q19 -35 58.5 -53.5t81.5 -18.5q41 0 84 17.5t75 49.5q18 18 29 39t17.5 43.5t10.5 45.5t7 45l71 449h84l-74 -472q-5 -31 -11.5 -58.5t-17 -53.5t-27.5 -50t-43 -47q-46 -42 -103 -64t-114 -22 q-54 0 -102.5 19.5t-80.5 57.5q-21 24 -31.5 48.5t-13.5 46t-3 37.5q0 12 2 33t7 53l74 472h84zM500 996l137 -133l-65 -45l-87 85l-112 -85l-50 45z"/>
<glyph glyph-name="Udieresis" horiz-adv-x="685" unicode="Ü" d="M206 305q-3 -21 -6.5 -43t-4 -34.5t-0.5 -14.5q0 -19 3.5 -38.5t14.5 -37.5q19 -35 58.5 -53.5t81.5 -18.5q41 0 84 17.5t75 49.5q18 18 29 39t17.5 43.5t10.5 45.5t7 45l71 449h84l-74 -472q-5 -31 -11.5 -58.5t-17 -53.5t-27.5 -50t-43 -47q-46 -42 -103 -64t-114 -22 q-54 0 -102.5 19.5t-80.5 57.5q-21 24 -31.5 48.5t-13.5 46t-3 37.5q0 12 2 33t7 53l74 472h84zM397 964q23 0 34.5 -13.5t11.5 -30.5q0 -5 -2.5 -19t-20 -29.5t-40.5 -15.5t-35 13.5t-12 30.5q0 5 2.5 19t20.5 29.5t41 15.5zM594 964q23 0 34.5 -13.5t11.5 -30.5 q0 -5 -2.5 -19t-20 -29.5t-40.5 -15.5t-35 13.5t-12 30.5q0 5 2.5 19t20.5 29.5t41 15.5z"/>
<glyph glyph-name="Yacute" horiz-adv-x="593" unicode="Ý" d="M127 754h97l139 -336l245 336h97l-315 -430l-51 -324h-84l51 324zM612 965l-178 -154l-45 28l145 164z"/>
<glyph glyph-name="Thorn" horiz-adv-x="503" unicode="Þ" d="M160 0h-84l119 754h84l-22 -140h40q49 0 96.5 -6t84.5 -34q38 -29 49.5 -66.5t11.5 -69.5q0 -18 -3 -36q-8 -46 -33 -89.5t-65 -72.5q-44 -32 -91.5 -41t-95.5 -9h-61zM202 268h56q35 0 67 6t58.5 21.5t44.5 41.5t24 67q2 16 2 30q0 25 -10.5 47t-36 35t-60 16.5 t-71.5 3.5h-31z"/>
<glyph glyph-name="germandbls" horiz-adv-x="577" unicode="ß" d="M135 396h-44l11 74h44l23 144q7 40 20 81t44 73q33 36 79.5 53t90.5 17q41 0 74 -14t55 -39t29.5 -53t7.5 -51q0 -15 -2 -31q-8 -45 -35.5 -85.5t-71.5 -60.5q35 -13 61 -38t41.5 -57t19.5 -60t4 -46q0 -20 -3 -40q-9 -59 -40.5 -109t-77 -87t-101 -58t-112.5 -22l12 74 q42 3 82 19t72 43t54 63.5t29 79.5q3 15 3 30q0 26 -10.5 59t-39.5 59q-26 22 -59 31.5t-68 12.5l11 74q28 0 53 8t45 24t33.5 38.5t18.5 51.5q1 10 1 19q0 36 -25 63.5t-74 27.5q-32 0 -64 -14t-49 -46q-15 -26 -22 -62.5t-12 -64.5l-91 -577h-80z"/>
<glyph glyph-name="agrave" horiz-adv-x="577" unicode="à" d="M336 409q-35 0 -65.5 -14t-54 -37.5t-39.5 -54t-21 -63.5q-3 -19 -3 -37q0 -15 3.5 -38.5t19.5 -48.5t42 -40t64 -15q39 0 70.5 14.5t55 39t38.5 56.5t21 68q3 18 3 34t-4.5 39.5t-21 46.5t-44 36.5t-64.5 13.5zM505 0h-80l10 65h-2q-74 -78 -174 -78q-52 0 -90.5 20.5 t-62.5 54.5t-30.5 67.5t-6.5 58.5q0 23 4 46q8 50 30.5 95.5t57 79.5t79.5 54t98 20q48 0 87 -21t62 -59h2l10 67h80zM350 744l93 -164l-55 -28l-128 154z"/>
<glyph glyph-name="aacute" horiz-adv-x="577" unicode="á" d="M336 409q-35 0 -65.5 -14t-54 -37.5t-39.5 -54t-21 -63.5q-3 -19 -3 -37q0 -15 3.5 -38.5t19.5 -48.5t42 -40t64 -15q39 0 70.5 14.5t55 39t38.5 56.5t21 68q3 18 3 34t-4.5 39.5t-21 46.5t-44 36.5t-64.5 13.5zM505 0h-80l10 65h-2q-74 -78 -174 -78q-52 0 -90.5 20.5 t-62.5 54.5t-30.5 67.5t-6.5 58.5q0 23 4 46q8 50 30.5 95.5t57 79.5t79.5 54t98 20q48 0 87 -21t62 -59h2l10 67h80zM543 706l-178 -154l-45 28l145 164z"/>
<glyph glyph-name="acircumflex" horiz-adv-x="577" unicode="â" d="M336 409q-35 0 -65.5 -14t-54 -37.5t-39.5 -54t-21 -63.5q-3 -19 -3 -37q0 -15 3.5 -38.5t19.5 -48.5t42 -40t64 -15q39 0 70.5 14.5t55 39t38.5 56.5t21 68q3 18 3 34t-4.5 39.5t-21 46.5t-44 36.5t-64.5 13.5zM505 0h-80l10 65h-2q-74 -78 -174 -78q-52 0 -90.5 20.5 t-62.5 54.5t-30.5 67.5t-6.5 58.5q0 23 4 46q8 50 30.5 95.5t57 79.5t79.5 54t98 20q48 0 87 -21t62 -59h2l10 67h80zM405 737l137 -133l-65 -45l-87 85l-112 -85l-50 45z"/>
<glyph glyph-name="atilde" horiz-adv-x="577" unicode="ã" d="M336 409q-35 0 -65.5 -14t-54 -37.5t-39.5 -54t-21 -63.5q-3 -19 -3 -37q0 -15 3.5 -38.5t19.5 -48.5t42 -40t64 -15q39 0 70.5 14.5t55 39t38.5 56.5t21 68q3 18 3 34t-4.5 39.5t-21 46.5t-44 36.5t-64.5 13.5zM505 0h-80l10 65h-2q-74 -78 -174 -78q-52 0 -90.5 20.5 t-62.5 54.5t-30.5 67.5t-6.5 58.5q0 23 4 46q8 50 30.5 95.5t57 79.5t79.5 54t98 20q48 0 87 -21t62 -59h2l10 67h80zM213 627q23 30 50 54.5t65 24.5q23 0 41.5 -7t35.5 -16q17 -8 32 -15.5t29 -7.5q21 0 36.5 15.5t26.5 32.5l41 -38q-19 -33 -50.5 -57t-68.5 -24 q-18 0 -36 7t-35 16q-17 8 -34 15t-33 7q-21 0 -33.5 -14.5t-23.5 -31.5z"/>
<glyph glyph-name="adieresis" horiz-adv-x="577" unicode="ä" d="M336 409q-35 0 -65.5 -14t-54 -37.5t-39.5 -54t-21 -63.5q-3 -19 -3 -37q0 -15 3.5 -38.5t19.5 -48.5t42 -40t64 -15q39 0 70.5 14.5t55 39t38.5 56.5t21 68q3 18 3 34t-4.5 39.5t-21 46.5t-44 36.5t-64.5 13.5zM505 0h-80l10 65h-2q-74 -78 -174 -78q-52 0 -90.5 20.5 t-62.5 54.5t-30.5 67.5t-6.5 58.5q0 23 4 46q8 50 30.5 95.5t57 79.5t79.5 54t98 20q48 0 87 -21t62 -59h2l10 67h80zM302 705q23 0 34.5 -13.5t11.5 -30.5q0 -5 -2.5 -19t-20 -29.5t-40.5 -15.5t-35 13.5t-12 30.5q0 5 2.5 19t20.5 29.5t41 15.5zM499 705q23 0 34.5 -13.5 t11.5 -30.5q0 -5 -2.5 -19t-20 -29.5t-40.5 -15.5t-35 13.5t-12 30.5q0 5 2.5 19t20.5 29.5t41 15.5z"/>
<glyph glyph-name="aring" horiz-adv-x="577" unicode="å" d="M336 409q-35 0 -65.5 -14t-54 -37.5t-39.5 -54t-21 -63.5q-3 -19 -3 -37q0 -15 3.5 -38.5t19.5 -48.5t42 -40t64 -15q39 0 70.5 14.5t55 39t38.5 56.5t21 68q3 18 3 34t-4.5 39.5t-21 46.5t-44 36.5t-64.5 13.5zM505 0h-80l10 65h-2q-74 -78 -174 -78q-52 0 -90.5 20.5 t-62.5 54.5t-30.5 67.5t-6.5 58.5q0 23 4 46q8 50 30.5 95.5t57 79.5t79.5 54t98 20q48 0 87 -21t62 -59h2l10 67h80zM408 747q40 0 61.5 -25.5t21.5 -55.5q0 -8 -1 -16q-3 -20 -13.5 -38t-26 -31.5t-34.5 -21t-39 -7.5q-41 0 -62.5 25.5t-21.5 54.5q0 9 2 18 q3 20 13.5 37.5t26 31t34.5 21t39 7.5zM400 697q-20 0 -36 -13.5t-18 -25.5t-2 -16q0 -15 10.5 -27.5t30.5 -12.5t36 14t18 26t2 16q0 15 -10.5 27t-30.5 12z"/>
<glyph glyph-name="ae" horiz-adv-x="843" unicode="æ" d="M773 286q0 25 -8.5 47.5t-24 39.5t-37.5 26.5t-48 9.5t-51.5 -9.5t-48 -26.5t-39 -39.5t-24.5 -47.5h281zM263 223q-19 0 -40.5 -4.5t-40.5 -14.5t-33 -26t-18 -38q-1 -6 -1 -11q0 -16 8 -29t23.5 -22t36 -13t39.5 -4q20 0 43 4t43 13.5t35 25.5t19 40q1 5 1 10 q0 17 -9.5 30t-27.5 22t-39 13t-39 4zM474 218q-2 -14 -2 -27q0 -18 5.5 -40.5t22 -43.5t43 -33.5t60.5 -12.5q51 0 89.5 27.5t68.5 69.5l62 -39q-44 -63 -105 -97.5t-133 -34.5q-53 0 -97 23t-68 70q-38 -51 -85.5 -72t-105.5 -21q-35 0 -69.5 8.5t-61 26.5t-38 42 t-11.5 50q0 11 4 38t26.5 56.5t53.5 48.5t67.5 28t71.5 9q39 0 68.5 -9t58.5 -31q4 25 4 47q0 9 -1.5 27t-14 38.5t-36.5 31.5t-62 11q-37 0 -74 -9t-75 -21l12 76q39 11 76.5 19.5t76.5 8.5q26 0 51.5 -5.5t47 -17.5t37.5 -30.5t23 -43.5q18 23 41 41t49 30.5t53.5 19 t53.5 6.5q57 0 96.5 -21.5t62 -58.5t26.5 -70t4 -52q0 -31 -6 -63h-370z"/>
<glyph glyph-name="ccedilla" horiz-adv-x="476" unicode="ç" d="M477 330h-2q-22 35 -53.5 57t-79.5 22q-36 0 -69 -14t-59 -38t-43 -55.5t-21.5 -57t-4.5 -41.5q0 -18 5.5 -42t23 -48t45 -38t64.5 -14q51 0 90.5 21.5t74.5 59.5h2l-16 -107q-38 -23 -76.5 -35.5t-80.5 -12.5q-53 0 -96 19t-71 52t-37.5 69.5t-9.5 66.5q0 20 3 41 q8 52 35 97.5t66.5 79t88 52.5t100.5 19q38 0 74 -12t64 -35zM178 -199l-51 28l119 148l70 -30z"/>
<glyph glyph-name="egrave" horiz-adv-x="519" unicode="è" d="M151 218q-2 -14 -2 -27q0 -18 5.5 -40.5t22 -43.5t43 -33.5t60.5 -12.5q51 0 89.5 27.5t68.5 69.5l62 -39q-44 -63 -105 -97.5t-133 -34.5q-53 0 -92.5 19t-64 51.5t-32 66.5t-7.5 60q0 22 4 45q8 52 30.5 98.5t57 81t80 54.5t100.5 20q57 0 96.5 -21.5t62.5 -58.5 t26.5 -69t3.5 -48q0 -33 -7 -68h-369zM446 286q0 25 -8.5 47.5t-24 39.5t-37.5 26.5t-48 9.5t-51.5 -9.5t-48 -26.5t-39 -39.5t-24.5 -47.5h281zM321 744l93 -164l-55 -28l-128 154z"/>
<glyph glyph-name="eacute" horiz-adv-x="519" unicode="é" d="M151 218q-2 -14 -2 -27q0 -18 5.5 -40.5t22 -43.5t43 -33.5t60.5 -12.5q51 0 89.5 27.5t68.5 69.5l62 -39q-44 -63 -105 -97.5t-133 -34.5q-53 0 -92.5 19t-64 51.5t-32 66.5t-7.5 60q0 22 4 45q8 52 30.5 98.5t57 81t80 54.5t100.5 20q57 0 96.5 -21.5t62.5 -58.5 t26.5 -69t3.5 -48q0 -33 -7 -68h-369zM446 286q0 25 -8.5 47.5t-24 39.5t-37.5 26.5t-48 9.5t-51.5 -9.5t-48 -26.5t-39 -39.5t-24.5 -47.5h281zM514 706l-178 -154l-45 28l145 164z"/>
<glyph glyph-name="ecircumflex" horiz-adv-x="519" unicode="ê" d="M151 218q-2 -14 -2 -27q0 -18 5.5 -40.5t22 -43.5t43 -33.5t60.5 -12.5q51 0 89.5 27.5t68.5 69.5l62 -39q-44 -63 -105 -97.5t-133 -34.5q-53 0 -92.5 19t-64 51.5t-32 66.5t-7.5 60q0 22 4 45q8 52 30.5 98.5t57 81t80 54.5t100.5 20q57 0 96.5 -21.5t62.5 -58.5 t26.5 -69t3.5 -48q0 -33 -7 -68h-369zM446 286q0 25 -8.5 47.5t-24 39.5t-37.5 26.5t-48 9.5t-51.5 -9.5t-48 -26.5t-39 -39.5t-24.5 -47.5h281zM376 737l137 -133l-65 -45l-87 85l-112 -85l-50 45z"/>
<glyph glyph-name="edieresis" horiz-adv-x="519" unicode="ë" d="M151 218q-2 -14 -2 -27q0 -18 5.5 -40.5t22 -43.5t43 -33.5t60.5 -12.5q51 0 89.5 27.5t68.5 69.5l62 -39q-44 -63 -105 -97.5t-133 -34.5q-53 0 -92.5 19t-64 51.5t-32 66.5t-7.5 60q0 22 4 45q8 52 30.5 98.5t57 81t80 54.5t100.5 20q57 0 96.5 -21.5t62.5 -58.5 t26.5 -69t3.5 -48q0 -33 -7 -68h-369zM446 286q0 25 -8.5 47.5t-24 39.5t-37.5 26.5t-48 9.5t-51.5 -9.5t-48 -26.5t-39 -39.5t-24.5 -47.5h281zM273 705q23 0 34.5 -13.5t11.5 -30.5q0 -5 -2.5 -19t-20 -29.5t-40.5 -15.5t-35 13.5t-12 30.5q0 5 2.5 19t20.5 29.5t41 15.5z M470 705q23 0 34.5 -13.5t11.5 -30.5q0 -5 -2.5 -19t-20 -29.5t-40.5 -15.5t-35 13.5t-12 30.5q0 5 2.5 19t20.5 29.5t41 15.5z"/>
<glyph glyph-name="igrave" horiz-adv-x="262" unicode="ì" d="M171 0h-80l74 470h80zM207 744l93 -164l-55 -28l-128 154z"/>
<glyph glyph-name="iacute" horiz-adv-x="262" unicode="í" d="M171 0h-80l74 470h80zM370 706l-178 -154l-45 28l145 164z"/>
<glyph glyph-name="icircumflex" horiz-adv-x="262" unicode="î" d="M171 0h-80l74 470h80zM247 737l137 -133l-65 -45l-87 85l-112 -85l-50 45z"/>
<glyph glyph-name="idieresis" horiz-adv-x="262" unicode="ï" d="M171 0h-80l74 470h80zM145 705q23 0 34.5 -13.5t11.5 -30.5q0 -5 -2.5 -19t-20 -29.5t-40.5 -15.5t-35 13.5t-12 30.5q0 5 2.5 19t20.5 29.5t41 15.5zM342 705q23 0 34.5 -13.5t11.5 -30.5q0 -5 -2.5 -19t-20 -29.5t-40.5 -15.5t-35 13.5t-12 30.5q0 5 2.5 19t20.5 29.5 t41 15.5z"/>
<glyph glyph-name="eth" horiz-adv-x="561" unicode="ð" d="M269 831l38.5 -28t29.5 -22.5t25.5 -21.5t27.5 -26l153 92l33 -41l-148 -90q10 -12 27 -32.5t35.5 -49.5t36.5 -66t30 -81.5t14.5 -79t2.5 -50.5q0 -38 -6 -79q-11 -71 -42 -121.5t-72.5 -83t-87.5 -48t-87 -15.5q-52 0 -94 19.5t-70 53t-37.5 69.5t-9.5 65q0 19 3 40 q7 47 31.5 91.5t61.5 79t84 55t101 20.5q33 0 58 -7.5t42 -17.5t28.5 -21t17.5 -18q-14 70 -49.5 129t-81.5 110l-147 -89l-33 41l144 87q-11 11 -36 33.5t-75 56.5zM152 236q-3 -17 -3 -32q0 -21 6.5 -46t26 -48t47.5 -35.5t63 -12.5q37 0 69.5 14t58 38t42.5 55.5t23 66.5 q3 16 3 31q0 18 -5.5 42t-23.5 48t-46 38.5t-65 14.5t-70 -13.5t-59 -37t-43.5 -55t-23.5 -68.5z"/>
<glyph glyph-name="ntilde" horiz-adv-x="528" unicode="ñ" d="M221 413h2q31 34 66 52t79 18q49 0 77.5 -16.5t42 -44.5t14 -49t0.5 -25q0 -33 -6 -69l-44 -279h-80l42 265q4 28 5 44.5t1 22.5q0 19 -5.5 36t-23.5 29t-53 12q-41 0 -67.5 -17.5t-42 -44.5t-24 -60t-13.5 -64l-35 -223h-80l74 470h80zM188 627q23 30 50 54.5t65 24.5 q23 0 41.5 -7t35.5 -16q17 -8 32 -15.5t29 -7.5q21 0 36.5 15.5t26.5 32.5l41 -38q-19 -33 -50.5 -57t-68.5 -24q-18 0 -36 7t-35 16q-17 8 -34 15t-33 7q-21 0 -33.5 -14.5t-23.5 -31.5z"/>
<glyph glyph-name="ograve" horiz-adv-x="562" unicode="ò" d="M279 -13q-51 0 -93 19t-70.5 52.5t-38 69.5t-9.5 66q0 20 5.5 56t32 81t65 79t86.5 53.5t100 19.5t94 -19.5t70 -53.5t37.5 -70t9.5 -66q0 -20 -5.5 -56t-32 -81t-65.5 -78.5t-87 -52.5t-99 -19zM346 409q-37 0 -70 -14t-59 -37.5t-43 -55t-21.5 -57.5t-4.5 -41 q0 -19 6 -43.5t24.5 -48.5t47 -37.5t65.5 -13.5t70 13.5t58.5 37.5t42.5 55.5t21.5 57.5t4.5 41q0 19 -6 43.5t-24 48t-46.5 37.5t-65.5 14zM342 744l93 -164l-55 -28l-128 154z"/>
<glyph glyph-name="oacute" horiz-adv-x="562" unicode="ó" d="M279 -13q-51 0 -93 19t-70.5 52.5t-38 69.5t-9.5 66q0 20 5.5 56t32 81t65 79t86.5 53.5t100 19.5t94 -19.5t70 -53.5t37.5 -70t9.5 -66q0 -20 -5.5 -56t-32 -81t-65.5 -78.5t-87 -52.5t-99 -19zM346 409q-37 0 -70 -14t-59 -37.5t-43 -55t-21.5 -57.5t-4.5 -41 q0 -19 6 -43.5t24.5 -48.5t47 -37.5t65.5 -13.5t70 13.5t58.5 37.5t42.5 55.5t21.5 57.5t4.5 41q0 19 -6 43.5t-24 48t-46.5 37.5t-65.5 14zM535 706l-178 -154l-45 28l145 164z"/>
<glyph glyph-name="ocircumflex" horiz-adv-x="562" unicode="ô" d="M279 -13q-51 0 -93 19t-70.5 52.5t-38 69.5t-9.5 66q0 20 5.5 56t32 81t65 79t86.5 53.5t100 19.5t94 -19.5t70 -53.5t37.5 -70t9.5 -66q0 -20 -5.5 -56t-32 -81t-65.5 -78.5t-87 -52.5t-99 -19zM346 409q-37 0 -70 -14t-59 -37.5t-43 -55t-21.5 -57.5t-4.5 -41 q0 -19 6 -43.5t24.5 -48.5t47 -37.5t65.5 -13.5t70 13.5t58.5 37.5t42.5 55.5t21.5 57.5t4.5 41q0 19 -6 43.5t-24 48t-46.5 37.5t-65.5 14zM397 737l137 -133l-65 -45l-87 85l-112 -85l-50 45z"/>
<glyph glyph-name="otilde" horiz-adv-x="562" unicode="õ" d="M279 -13q-51 0 -93 19t-70.5 52.5t-38 69.5t-9.5 66q0 20 5.5 56t32 81t65 79t86.5 53.5t100 19.5t94 -19.5t70 -53.5t37.5 -70t9.5 -66q0 -20 -5.5 -56t-32 -81t-65.5 -78.5t-87 -52.5t-99 -19zM346 409q-37 0 -70 -14t-59 -37.5t-43 -55t-21.5 -57.5t-4.5 -41 q0 -19 6 -43.5t24.5 -48.5t47 -37.5t65.5 -13.5t70 13.5t58.5 37.5t42.5 55.5t21.5 57.5t4.5 41q0 19 -6 43.5t-24 48t-46.5 37.5t-65.5 14zM205 627q23 30 50 54.5t65 24.5q23 0 41.5 -7t35.5 -16q17 -8 32 -15.5t29 -7.5q21 0 36.5 15.5t26.5 32.5l41 -38 q-19 -33 -50.5 -57t-68.5 -24q-18 0 -36 7t-35 16q-17 8 -34 15t-33 7q-21 0 -33.5 -14.5t-23.5 -31.5z"/>
<glyph glyph-name="odieresis" horiz-adv-x="562" unicode="ö" d="M279 -13q-51 0 -93 19t-70.5 52.5t-38 69.5t-9.5 66q0 20 5.5 56t32 81t65 79t86.5 53.5t100 19.5t94 -19.5t70 -53.5t37.5 -70t9.5 -66q0 -20 -5.5 -56t-32 -81t-65.5 -78.5t-87 -52.5t-99 -19zM346 409q-37 0 -70 -14t-59 -37.5t-43 -55t-21.5 -57.5t-4.5 -41 q0 -19 6 -43.5t24.5 -48.5t47 -37.5t65.5 -13.5t70 13.5t58.5 37.5t42.5 55.5t21.5 57.5t4.5 41q0 19 -6 43.5t-24 48t-46.5 37.5t-65.5 14zM295 705q23 0 34.5 -13.5t11.5 -30.5q0 -5 -2.5 -19t-20 -29.5t-40.5 -15.5t-35 13.5t-12 30.5q0 5 2.5 19t20.5 29.5t41 15.5z M492 705q23 0 34.5 -13.5t11.5 -30.5q0 -5 -2.5 -19t-20 -29.5t-40.5 -15.5t-35 13.5t-12 30.5q0 5 2.5 19t20.5 29.5t41 15.5z"/>
<glyph glyph-name="divide" d="M113 295h484l-13 -78h-484zM328 124q23 0 36 -15t13 -32q0 -5 -1 -10q-4 -24 -23.5 -40.5t-42.5 -16.5t-36 14.5t-13 32.5q0 5 1 10q4 23 23.5 40t42.5 17zM388 502q23 0 35.5 -15t12.5 -32q0 -5 -1 -10q-4 -24 -23.5 -40.5t-42.5 -16.5t-36 14.5t-13 32.5q0 5 1 10 q4 23 24 40t43 17z" unicode="÷"/>
<glyph glyph-name="oslash" horiz-adv-x="562" unicode="ø" d="M442 374q-17 17 -41.5 26t-54.5 9q-37 0 -70 -14t-59 -37.5t-43 -55t-23 -67.5q-3 -16 -3 -31q0 -12 3 -30.5t13 -39.5zM196 94q36 -33 95 -33q37 0 70 13.5t58.5 37.5t42.5 55.5t23 67.5q3 16 3 31q0 37 -16 67zM101 79q-21 32 -27 62t-6 52q0 20 3 41q8 52 34.5 97 t65 79t86.5 53.5t100 19.5q45 0 83 -14.5t65 -40.5l76 66l33 -38l-77 -67q20 -31 25.5 -61t5.5 -52q0 -20 -3 -42q-8 -52 -34.5 -97t-65.5 -78.5t-87 -52.5t-99 -19q-44 0 -81 14t-65 39l-78 -68l-33 39z"/>
<glyph glyph-name="ugrave" horiz-adv-x="512" unicode="ù" d="M183 208q-5 -30 -5.5 -45t-0.5 -18q0 -23 7 -41.5t26.5 -30.5t55.5 -12t59 12t37 32t21 46.5t12 56.5l41 262h80l-42 -271q-8 -47 -23.5 -86t-42 -67t-64.5 -43.5t-90 -15.5t-85 15.5t-50.5 43.5t-20 53.5t-2.5 37.5q0 29 6 62l42 271h80zM317 744l93 -164l-55 -28 l-128 154z"/>
<glyph glyph-name="uacute" horiz-adv-x="512" unicode="ú" d="M183 208q-5 -30 -5.5 -45t-0.5 -18q0 -23 7 -41.5t26.5 -30.5t55.5 -12t59 12t37 32t21 46.5t12 56.5l41 262h80l-42 -271q-8 -47 -23.5 -86t-42 -67t-64.5 -43.5t-90 -15.5t-85 15.5t-50.5 43.5t-20 53.5t-2.5 37.5q0 29 6 62l42 271h80zM510 706l-178 -154l-45 28 l145 164z"/>
<glyph glyph-name="ucircumflex" horiz-adv-x="512" unicode="û" d="M183 208q-5 -30 -5.5 -45t-0.5 -18q0 -23 7 -41.5t26.5 -30.5t55.5 -12t59 12t37 32t21 46.5t12 56.5l41 262h80l-42 -271q-8 -47 -23.5 -86t-42 -67t-64.5 -43.5t-90 -15.5t-85 15.5t-50.5 43.5t-20 53.5t-2.5 37.5q0 29 6 62l42 271h80zM372 737l137 -133l-65 -45 l-87 85l-112 -85l-50 45z"/>
<glyph glyph-name="udieresis" horiz-adv-x="512" unicode="ü" d="M183 208q-5 -30 -5.5 -45t-0.5 -18q0 -23 7 -41.5t26.5 -30.5t55.5 -12t59 12t37 32t21 46.5t12 56.5l41 262h80l-42 -271q-8 -47 -23.5 -86t-42 -67t-64.5 -43.5t-90 -15.5t-85 15.5t-50.5 43.5t-20 53.5t-2.5 37.5q0 29 6 62l42 271h80zM270 705q23 0 34.5 -13.5 t11.5 -30.5q0 -5 -2.5 -19t-20 -29.5t-40.5 -15.5t-35 13.5t-12 30.5q0 5 2.5 19t20.5 29.5t41 15.5zM467 705q23 0 34.5 -13.5t11.5 -30.5q0 -5 -2.5 -19t-20 -29.5t-40.5 -15.5t-35 13.5t-12 30.5q0 5 2.5 19t20.5 29.5t41 15.5z"/>
<glyph glyph-name="yacute" horiz-adv-x="498" unicode="ý" d="M72 470h93l113 -337l205 337h91l-463 -734h-91l201 308zM523 706l-178 -154l-45 28l145 164z"/>
<glyph glyph-name="thorn" horiz-adv-x="577" unicode="þ" d="M216 403h2q35 39 80 59.5t94 20.5q52 0 90.5 -20.5t62.5 -55t30.5 -68.5t6.5 -58q0 -23 -4 -47q-8 -50 -30.5 -95t-57 -79t-79.5 -53.5t-98 -19.5q-48 0 -87 20.5t-62 58.5h-2l-52 -330h-80l173 1089h80zM366 409q-35 0 -65.5 -14t-54 -37.5t-39.5 -54t-21 -63.5 q-3 -19 -3 -37q0 -15 3.5 -38.5t19.5 -48.5t42 -40t64 -15q39 0 70.5 14.5t55 39t38.5 56.5t21 68q3 18 3 34t-4.5 39.5t-21 46.5t-44 36.5t-64.5 13.5z"/>
<glyph glyph-name="OE" horiz-adv-x="1190" unicode="Œ" d="M752 145h-2q-30 -38 -67.5 -67.5t-79 -49.5t-85.5 -30.5t-89 -10.5q-81 0 -147.5 30.5t-111.5 83t-61 109.5t-16 104q0 30 9 86.5t51 127.5t104 124.5t138 84t157 30.5q89 0 161 -42.5t110 -118.5h2l23 148h394l-12 -78h-310l-35 -224h301l-13 -78h-301l-47 -296h310 l-12 -78h-394zM540 689q-65 0 -125 -24.5t-108.5 -67t-81.5 -99.5t-40 -102t-7 -69q0 -37 12 -82t47 -87.5t87.5 -67.5t116.5 -25t124.5 25t109 67.5t82 99t40.5 101.5t7 69q0 37 -12 82.5t-47 88t-87.5 67t-117.5 24.5z"/>
<glyph glyph-name="oe" horiz-adv-x="940" unicode="œ" d="M570 218q-2 -14 -2 -27q0 -18 5.5 -40.5t22 -43.5t43 -33.5t60.5 -12.5q51 0 89.5 27.5t68.5 69.5l62 -39q-44 -63 -105 -97.5t-133 -34.5q-29 0 -56.5 7.5t-51 22t-41.5 35.5t-27 47q-20 -27 -46 -48t-56 -35t-61.5 -21.5t-62.5 -7.5q-51 0 -93 19t-70.5 52.5t-38 69.5 t-9.5 66q0 20 5.5 56t32 81t65 79t86.5 53.5t100 19.5q66 -2 118 -31t72 -83q37 55 93 83.5t117 30.5q57 0 97 -21.5t63 -58.5t27 -69.5t4 -49.5q0 -32 -7 -66h-371zM868 286q0 25 -8.5 47.5t-24 39.5t-37.5 26.5t-48 9.5t-51.5 -9.5t-48 -26.5t-39 -39.5t-24.5 -47.5h281z M348 409q-37 0 -70 -14t-59 -37.5t-43 -55t-21.5 -57.5t-4.5 -41q0 -19 6 -43.5t24.5 -48.5t47 -37.5t65.5 -13.5t70 13.5t58.5 37.5t42.5 55.5t21.5 57.5t4.5 41q0 19 -6 43.5t-24 48t-46.5 37.5t-65.5 14z"/>
<glyph glyph-name="Scaron" horiz-adv-x="559" unicode="Š" d="M514 607q-17 39 -43 60.5t-74 21.5q-25 0 -49 -8.5t-43.5 -24t-33 -37t-17.5 -47.5q-1 -8 -1 -15q0 -15 7 -30.5t22 -29.5t34 -24t37 -19l46 -22q34 -16 64.5 -34.5t51.5 -43t28 -50t7 -47.5q0 -17 -3 -37q-8 -50 -33.5 -92.5t-62.5 -73.5t-83 -49t-95 -18q-45 0 -82 14 t-63.5 39.5t-41.5 61.5t-17 80l85 23q0 -29 8.5 -54.5t25 -44.5t41 -30t54.5 -11t60 11t54.5 30.5t42 46.5t22.5 59q2 13 2 24q0 18 -6.5 36.5t-23.5 35.5t-40.5 29.5t-47.5 24.5l-42 20q-31 15 -58 32t-46 39t-25.5 45.5t-6.5 44.5q0 15 2 32q7 44 30 79.5t56 60.5t73 38.5 t82 13.5q63 0 109.5 -30.5t67.5 -86.5zM421 818l-137 133l65 45l86 -85l113 85l50 -45z"/>
<glyph glyph-name="scaron" horiz-adv-x="399" unicode="š" d="M323 361q-5 19 -19.5 33.5t-36.5 14.5q-21 0 -42 -14.5t-24 -37.5q-3 -16 4.5 -27.5t21.5 -21t32 -17t38 -16.5q19 -9 37 -20t30.5 -26.5t17 -32t4.5 -30.5q0 -12 -2 -26q-5 -33 -22 -61.5t-42 -48.5t-55.5 -31.5t-63.5 -11.5q-60 0 -98.5 31.5t-48.5 87.5l76 30 q10 -33 27 -54t57 -21q32 0 57 20t30 52q1 6 1 12q0 18 -11.5 32t-33 26t-47.5 22.5t-47 26t-31.5 35t-10.5 40.5q0 11 2 23q5 30 20 54.5t37 42t48.5 27t55.5 9.5q41 0 71 -25t41 -62zM290 559l-137 133l65 45l86 -85l113 85l50 -45z"/>
<glyph glyph-name="Ydieresis" horiz-adv-x="593" unicode="Ÿ" d="M127 754h97l139 -336l245 336h97l-315 -430l-51 -324h-84l51 324zM363 964q23 0 34.5 -13.5t11.5 -30.5q0 -5 -2.5 -19t-20 -29.5t-40.5 -15.5t-35 13.5t-12 30.5q0 5 2.5 19t20.5 29.5t41 15.5zM560 964q23 0 34.5 -13.5t11.5 -30.5q0 -5 -2.5 -19t-20 -29.5 t-40.5 -15.5t-35 13.5t-12 30.5q0 5 2.5 19t20.5 29.5t41 15.5z"/>
<glyph glyph-name="circumflex" horiz-adv-x="470" unicode="ˆ" d="M351 737l137 -133l-65 -45l-87 85l-112 -85l-50 45z"/>
<glyph glyph-name="tilde" horiz-adv-x="506" unicode="˜" d="M177 627q23 30 50 54.5t65 24.5q23 0 41.5 -7t35.5 -16q17 -8 32 -15.5t29 -7.5q21 0 36.5 15.5t26.5 32.5l41 -38q-19 -33 -50.5 -57t-68.5 -24q-18 0 -36 7t-35 16q-17 8 -34 15t-33 7q-21 0 -33.5 -14.5t-23.5 -31.5z"/>
<glyph glyph-name="endash" horiz-adv-x="500" unicode="–" d="M544 278l-12 -74h-500l12 74h500z"/>
<glyph glyph-name="emdash" horiz-adv-x="1000" unicode="—" d="M914 278l-12 -74h-740l12 74h740z"/>
<glyph glyph-name="quoteleft" horiz-adv-x="289" unicode="‘" d="M142 512l154 255l51 -21l-135 -261z"/>
<glyph glyph-name="quotesinglbase" horiz-adv-x="289" unicode="‚" d="M242 84l-154 -256l-51 22l135 260z"/>
<glyph glyph-name="quotedblleft" horiz-adv-x="457" unicode="“" d="M310 512l154 255l51 -21l-135 -261zM142 512l154 255l51 -21l-135 -261z"/>
<glyph glyph-name="quotedblright" horiz-adv-x="457" unicode="”" d="M346 740l-154 -255l-51 21l135 261zM514 740l-154 -255l-51 21l135 261z"/>
<glyph glyph-name="dagger" horiz-adv-x="592" unicode="†" d="M456 754l-29 -185h167l-12 -78h-167l-104 -654h-82l104 654h-167l12 78h167l29 185h82z"/>
<glyph glyph-name="daggerdbl" horiz-adv-x="592" unicode="‡" d="M456 754l-29 -185h167l-12 -78h-167l-58 -363h167l-12 -78h-167l-34 -213h-82l34 213h-167l12 78h167l58 363h-167l12 78h167l29 185h82z"/>
<glyph glyph-name="ellipsis" horiz-adv-x="1000" unicode="…" d="M184 99q23 0 35.5 -14t12.5 -31q0 -5 -2.5 -19t-21.5 -31t-42 -17t-35.5 15t-12.5 32q0 5 2.5 19t21.5 30t42 16zM516 99q23 0 35.5 -14t12.5 -31q0 -5 -2.5 -19t-21.5 -31t-42 -17t-35.5 15t-12.5 32q0 5 2.5 19t21.5 30t42 16zM848 99q23 0 35.5 -14t12.5 -31 q0 -5 -2.5 -19t-21.5 -31t-42 -17t-35.5 15t-12.5 32q0 5 2.5 19t21.5 30t42 16z"/>
<glyph glyph-name="perthousand" horiz-adv-x="1212" unicode="‰" d="M323 767q34 0 63 -12.5t48.5 -35t26 -46.5t6.5 -43q0 -14 -2 -28q-5 -35 -23.5 -64.5t-45 -52t-59 -35t-66.5 -12.5t-62.5 12.5t-48 34.5t-26.5 46.5t-7 45.5q0 12 2 25q6 35 24 65t44 52.5t58.5 35t67.5 12.5zM313 703q-21 0 -41 -8t-36.5 -21.5t-28 -32t-13.5 -32.5 t-2 -21q0 -13 4.5 -28t17 -28.5t30 -21.5t38.5 -8t41 8t36.5 21.5t27.5 31.5t13 32t2 22q0 13 -4.5 28t-16.5 28.5t-29.5 21.5t-38.5 8zM757 743l-556 -756l-39 26l558 754zM650 316q34 0 63 -12.5t48.5 -35t26 -46.5t6.5 -43q0 -14 -4 -38.5t-22 -54t-44.5 -52t-59 -35 t-66.5 -12.5t-62.5 12.5t-48 34.5t-26.5 46t-7 44q0 13 4 37.5t22 54.5t44 52.5t58.5 35t67.5 12.5zM640 252q-21 0 -41 -8t-36.5 -21.5t-28 -32t-13.5 -32.5t-2 -21q0 -13 4.5 -28t16.5 -28.5t29.5 -21.5t38.5 -8t41 8t36.5 21.5t28 31.5t13.5 32t2 22q0 13 -4.5 28 t-16.5 28.5t-29.5 21.5t-38.5 8zM1060 316q34 0 63 -12.5t48.5 -35t26 -46.5t6.5 -43q0 -14 -4 -38.5t-22 -54t-44.5 -52t-59 -35t-66.5 -12.5t-62.5 12.5t-48 34.5t-26.5 46t-7 44q0 13 4 37.5t22 54.5t44 52.5t58.5 35t67.5 12.5zM1050 252q-21 0 -41 -8t-36.5 -21.5 t-28 -32t-13.5 -32.5t-2 -21q0 -13 4.5 -28t16.5 -28.5t29.5 -21.5t38.5 -8t41 8t36.5 21.5t28 31.5t13.5 32t2 22q0 13 -4.5 28t-16.5 28.5t-29.5 21.5t-38.5 8z"/>
<glyph glyph-name="guilsinglleft" horiz-adv-x="330" unicode="‹" d="M274 74l-60 -41l-135 207l202 213l46 -42l-162 -171z"/>
<glyph glyph-name="guilsinglright" horiz-adv-x="330" unicode="›" d="M241 240l-108 171l60 42l134 -213l-201 -207l-46 41z"/>
<glyph glyph-name="trademark" horiz-adv-x="940" unicode="™" d="M958 333h-60l57 361h-2l-201 -361h-39l-83 361h-2l-57 -361h-60l66 421h101l73 -303l173 303h100zM487 694h-140l-57 -361h-60l57 361h-141l9 60h341z"/>
</font>
</defs>
</svg>
